<?xml version="1.0" encoding="utf-8" standalone="yes"?>
<!DOCTYPE svg PUBLIC "-//W3C//DTD SVG 1.1//EN" "http://www.w3.org/Graphics/SVG/1.1/DTD/svg11.dtd">
<svg width="722" height="699" viewBox="0 0 722 699" style="fill:none;stroke:none;fill-rule:evenodd;clip-rule:evenodd;stroke-linecap:round;stroke-linejoin:round;stroke-miterlimit:1.5;" version="1.1" xmlns="http://www.w3.org/2000/svg" xmlns:xlink="http://www.w3.org/1999/xlink"><style class="text-font-style fontImports" data-font-family="Roboto">@import url('https://fonts.googleapis.com/css2?family=Roboto:wght@400;700&amp;display=block');</style><rect id="" x="0" y="0" width="722" height="699" style="fill: #ffffff;"></rect><g id="items" style="isolation: isolate"><g id="blend" style="mix-blend-mode: normal"><g id="g-root-tf_1lsex9xid37yd-fill" data-item-order="-501840" transform="translate(-9, -9)"><g id="tf_1lsex9xid37yd-fill" stroke="none" fill="#ffffff"><g><path d="M 10 10L 730 10L 730 707L 10 707Z"></path></g></g></g><g id="g-root-5.g-5_fr_1uonvn9icl0jl-fill" data-item-order="-403862" transform="translate(120.94699096679688, 227)"><g id="5.g-5_fr_1uonvn9icl0jl-fill" stroke="none" fill="url(#gradient-fdac61-172712277)"><g><path d="M 98.6875 146.5L 10 10L 172.594 103.8438L 236.105 140.5C 235.084 142.265 234.5 144.314 234.5 146.5L 98.6875 146.5Z"></path></g></g><g id="5.g-5_fr_1uonvn9icl0jl-fill" stroke="none" fill="url(#gradient-fdac61-172712277)"><g><path d="M 172.5937 189.1562L 98.6875 146.5L 234.4995 146.5C 234.4995 148.6856 235.0845 150.7346 236.1055 152.4996L 172.5937 189.1562Z"></path></g></g></g><g id="g-root-4.g-4_fr_1lt0vedicl1cc-fill" data-item-order="-403858" transform="translate(120.94699096679688, 369.5)"><g id="4.g-4_fr_1lt0vedicl1cc-fill" stroke="none" fill="url(#gradient-ffed4b-499785973)"><g><path d="M 172.594 131.969L 10 140.5L 172.594 46.6567L 236.105 10C 237.159 11.8212 238.677 13.3398 240.498 14.3937L 172.594 131.969Z"></path></g></g><g id="4.g-4_fr_1lt0vedicl1cc-fill" stroke="none" fill="url(#gradient-ffed4b-499785973)"><g><path d="M 246.49995 89.313831L 172.59375 131.970531L 240.49755 14.394531C 242.26315 15.416431 244.31325 16.001331 246.49995 16.001331L 246.49995 89.313831Z"></path></g></g></g><g id="g-root-3.g-3_fr_1hdtud1ickyyv-fill" data-item-order="-403854" transform="translate(357.447021484375, 369.5)"><g id="3.g-3_fr_1hdtud1ickyyv-fill" stroke="none" fill="url(#gradient-bceb57-497517668)"><g><path d="M 83.9062 131.970531L 10 277.001531L 10 89.313831L 10 16.001331C 12.1867 16.001331 14.2368 15.416431 16.0024 14.394531L 83.9062 131.970531Z"></path></g></g><g id="3.g-3_fr_1hdtud1ickyyv-fill" stroke="none" fill="url(#gradient-bceb57-497517668)"><g><path d="M 83.905753 46.6567L 83.905753 131.969L 16.001953 14.3937C 17.822753 13.3398 19.341053 11.8212 20.394353 10L 83.905753 46.6567Z"></path></g></g></g><g id="g-root-2.g-2_fr_1cy0c8lickzr6-fill" data-item-order="-403850" transform="translate(367.842041015625, 320.843994140625)"><g id="2.g-2_fr_1cy0c8lickzr6-fill" stroke="none" fill="url(#gradient-64edab-240055791)"><g><path d="M 236.105 189.15625L 147.418 52.65625L 11.6051 52.65625C 11.6051 54.84185 11.0209 56.89085 10 58.65585L 73.5114 95.31245L 236.105 189.15625Z"></path></g></g><g id="2.g-2_fr_1cy0c8lickzr6-fill" stroke="none" fill="url(#gradient-64edab-240055791)"><g><path d="M 147.418 52.6562L 73.5114 10L 10 46.6567C 11.0209 48.4216 11.6051 50.4707 11.6051 52.6562L 147.418 52.6562Z"></path></g></g></g><g id="g-root-1.g-1_fr_142dbzpicl0jx-fill" data-item-order="-403846" transform="translate(357.447021484375, 227)"><g id="1.g-1_fr_142dbzpicl0jx-fill" stroke="none" fill="url(#gradient-4dd3ff-378786070)"><g><path d="M 83.905753 18.5313L 246.499953 10L 83.905753 103.8438L 20.394353 140.5C 19.341053 138.679 17.822753 137.161 16.001953 136.107L 83.905753 18.5313Z"></path></g></g><g id="1.g-1_fr_142dbzpicl0jx-fill" stroke="none" fill="url(#gradient-4dd3ff-378786070)"><g><path d="M 10 57.22785L 83.9062 18.53125L 16.0024 136.10725C 14.2368 135.08525 12.1867 134.50025 10 134.50025L 10 57.22785Z"></path></g></g></g><g id="g-root-6.g-6_fr_zmjtv9icl1c8-fill" data-item-order="-403842" transform="translate(283.4469909667969, 90.5)"><g id="6.g-6_fr_zmjtv9icl1c8-fill" stroke="none" fill="url(#gradient-fe8884-413551779)"><g><path d="M 10 155.031L 83.9062 10L 83.9062 193.728L 83.9062 271C 81.7195 271 79.6694 271.585 77.9038 272.607L 10 155.031Z"></path></g></g><g id="6.g-6_fr_zmjtv9icl1c8-fill" stroke="none" fill="url(#gradient-fe8884-413551779)"><g><path d="M 10 240.34375L 10 155.03125L 77.9038 272.60725C 76.083 273.66025 74.5647 275.17925 73.5114 277.00025L 10 240.34375Z"></path></g></g></g><g id="g-root-0.g-0_fr_v7cstxickyyr-fill" data-item-order="-403838" transform="translate(345.447021484375, 351.5)"><defs><linearGradient id="gradient-fdac61-172712277" x2="0" y2="1"><stop offset="0" stop-color="#ffc188"></stop><stop offset="1" stop-color="#fa963a"></stop></linearGradient><linearGradient id="gradient-ffed4b-499785973" x2="0" y2="1"><stop offset="0" stop-color="#fff282"></stop><stop offset="1" stop-color="#ffe714"></stop></linearGradient><linearGradient id="gradient-bceb57-497517668" x2="0" y2="1"><stop offset="0" stop-color="#cff976"></stop><stop offset="1" stop-color="#a8dd38"></stop></linearGradient><linearGradient id="gradient-64edab-240055791" x2="0" y2="1"><stop offset="0" stop-color="#83fac1"></stop><stop offset="1" stop-color="#44e095"></stop></linearGradient><linearGradient id="gradient-4dd3ff-378786070" x2="0" y2="1"><stop offset="0" stop-color="#7fdfff"></stop><stop offset="1" stop-color="#1ac6ff"></stop></linearGradient><linearGradient id="gradient-fe8884-413551779" x2="0" y2="1"><stop offset="0" stop-color="#ffa6a3"></stop><stop offset="1" stop-color="#fd6a65"></stop></linearGradient><linearGradient id="gradient-cbcbcb-248399021" x2="0" y2="1"><stop offset="0" stop-color="#d9d9d9"></stop><stop offset="1" stop-color="#bcbcbc"></stop></linearGradient></defs><g id="0.g-0_fr_v7cstxickyyr-fill" stroke="none" fill="url(#gradient-cbcbcb-248399021)"><g><path d="M 11.6051 16.0004C 10.5843 17.7654 10 19.8145 10 22C 10 24.1855 10.5843 26.2346 11.6051 27.9996C 12.6585 29.8207 14.1767 31.3394 15.9976 32.3932C 17.7632 33.4151 19.8133 34 22 34C 24.1867 34 26.2368 33.4151 28.0024 32.3932C 29.8233 31.3394 31.3415 29.8207 32.3949 27.9996C 33.4157 26.2346 34 24.1855 34 22C 34 19.8145 33.4157 17.7654 32.3949 16.0004C 31.3415 14.1793 29.8233 12.6607 28.0024 11.6068C 26.2368 10.5849 24.1867 10 22 10C 19.8133 10 17.7632 10.5849 15.9976 11.6068C 14.1767 12.6606 12.6585 14.1793 11.6051 16.0004Z"></path></g></g></g><g id="g-root-soft_1lt0vedicnuh0-fill" data-item-order="0" transform="translate(303.4469909667969, 207.5)"></g><g id="g-root-cog_74p9xid0hla-fill" data-item-order="0" transform="translate(435.447021484375, 244.25)"></g><g id="g-root-tx__qnsg6ticnu2w-fill" data-item-order="0" transform="translate(15, 315)"><g id="tx__qnsg6ticnu2w-fill" stroke="none" fill="#de8431"><g><text style="font: bold 20px Roboto, sans-serif; white-space: pre;" font-weight="bold" font-size="20px" font-family="Roboto, sans-serif"><tspan x="52" y="34" dominant-baseline="ideographic">大数据开发</tspan></text></g></g></g><g id="g-root-tx_android_dl2l11icmexa-fill" data-item-order="0" transform="translate(435, 567)"><g id="tx_android_dl2l11icmexa-fill" stroke="none" fill="#484848"><g><text style="font: 15px Roboto, sans-serif; white-space: pre;" font-size="15px" font-family="Roboto, sans-serif"><tspan x="12" y="28" dominant-baseline="ideographic">尤其是在 Android 设</tspan><tspan x="12" y="46" dominant-baseline="ideographic">备上开发移动应用</tspan></text></g></g></g><g id="g-root-tx_idea_hvwaglicmeq6-fill" data-item-order="0" transform="translate(399, 171)"><g id="tx_idea_hvwaglicmeq6-fill" stroke="none" fill="#484848"><g><text style="font: 15px Roboto, sans-serif; white-space: pre;" font-size="15px" font-family="Roboto, sans-serif"><tspan x="12" y="28" dominant-baseline="ideographic">开发如 IDEA 和编辑</tspan><tspan x="12" y="46" dominant-baseline="ideographic">器的桌面软件</tspan></text></g></g></g><g id="g-root-tx__m8lf5hicmdjc-fill" data-item-order="0" transform="translate(543, 327)"><g id="tx__m8lf5hicmdjc-fill" stroke="none" fill="#3cc583"><g><text style="font: bold 20px Roboto, sans-serif; white-space: pre;" font-weight="bold" font-size="20px" font-family="Roboto, sans-serif"><tspan x="12" y="34" dominant-baseline="ideographic">企业级应用</tspan></text></g></g></g><g id="g-root-tx__140hwqdicnuo2-fill" data-item-order="0" transform="translate(15, 351)"><g id="tx__140hwqdicnuo2-fill" stroke="none" fill="#484848"><g><text style="font: 15px Roboto, sans-serif; white-space: pre;" font-size="15px" font-family="Roboto, sans-serif"><tspan x="17" y="31" dominant-baseline="ideographic">处理和分析大数据集</tspan></text></g></g></g><g id="g-root-tx__9592wlicl1ji-fill" data-item-order="0" transform="translate(135, 159)"><g id="tx__9592wlicl1ji-fill" stroke="none" fill="#484848"><g><text style="font: 15px Roboto, sans-serif; white-space: pre;" font-size="15px" font-family="Roboto, sans-serif"><tspan x="17" y="28" dominant-baseline="ideographic">用于创建互动游戏体</tspan><tspan x="137" y="46" dominant-baseline="ideographic">验</tspan></text></g></g></g><g id="g-root-tx__1uonvn9icmfic-fill" data-item-order="0" transform="translate(399, 135)"><g id="tx__1uonvn9icmfic-fill" stroke="none" fill="#1eabda"><g><text style="font: bold 20px Roboto, sans-serif; white-space: pre;" font-weight="bold" font-size="20px" font-family="Roboto, sans-serif"><tspan x="12" y="34" dominant-baseline="ideographic">桌面应用开发</tspan></text></g></g></g><g id="g-root-tx__1lyn56dickz5w-fill" data-item-order="0" transform="translate(135, 123)"><g id="tx__1lyn56dickz5w-fill" stroke="none" fill="#e55753"><g><text style="font: bold 20px Roboto, sans-serif; white-space: pre;" font-weight="bold" font-size="20px" font-family="Roboto, sans-serif"><tspan x="72" y="34" dominant-baseline="ideographic">游戏开发</tspan></text></g></g></g><g id="g-root-tx__1cw4wz9icmfpe-fill" data-item-order="0" transform="translate(543, 363)"><g id="tx__1cw4wz9icmfpe-fill" stroke="none" fill="#484848"><g><text style="font: 15px Roboto, sans-serif; white-space: pre;" font-size="15px" font-family="Roboto, sans-serif"><tspan x="12" y="28" dominant-baseline="ideographic">创建强大企业解决方</tspan><tspan x="12" y="46" dominant-baseline="ideographic">案的框架</tspan></text></g></g></g><g id="g-root-wind_18ntmutici8e9-fill" data-item-order="0" transform="translate(459.447021484375, 375.5)"></g><g id="g-root-circ_1upam7picmepx-fill" data-item-order="0" transform="translate(231.447021484375, 435.5)"></g><g id="g-root-java_1lw5omticnsw7-fill" data-item-order="0" transform="translate(363.447021484375, 471.5)"></g><g id="g-root-tx__v8lr05icmfbc-fill" data-item-order="0" transform="translate(171, 519)"><g id="tx__v8lr05icmfbc-fill" stroke="none" fill="#e0cb15"><g><text style="font: bold 20px Roboto, sans-serif; white-space: pre;" font-weight="bold" font-size="20px" font-family="Roboto, sans-serif"><tspan x="72" y="34" dominant-baseline="ideographic">科学计算</tspan></text></g></g></g><g id="g-root-tx__1utnoc5icmex8-fill" data-item-order="0" transform="translate(435, 531)"><g id="tx__1utnoc5icmex8-fill" stroke="none" fill="#92bd39"><g><text style="font: bold 20px Roboto, sans-serif; white-space: pre;" font-weight="bold" font-size="20px" font-family="Roboto, sans-serif"><tspan x="12" y="34" dominant-baseline="ideographic">移动应用</tspan></text></g></g></g><g id="g-root-tx__1lwrpx1icmebm-fill" data-item-order="0" transform="translate(171, 555)"><g id="tx__1lwrpx1icmebm-fill" stroke="none" fill="#484848"><g><text style="font: 15px Roboto, sans-serif; white-space: pre;" font-size="15px" font-family="Roboto, sans-serif"><tspan x="17" y="28" dominant-baseline="ideographic">用于复杂数学计算和</tspan><tspan x="122" y="46" dominant-baseline="ideographic">建模</tspan></text></g></g></g><g id="g-root-2_147d7udid0gzw-fill" data-item-order="0" transform="translate(207.447021484375, 303.5)"></g><g id="g-root-tf_1lsex9xid37yd-stroke" data-item-order="-501840" transform="translate(-9, -9)"></g><g id="g-root-5.g-5_fr_1uonvn9icl0jl-stroke" data-item-order="-403862" transform="translate(120.94699096679688, 227)"><g id="5.g-5_fr_1uonvn9icl0jl-stroke" fill="none" stroke-linecap="round" stroke-linejoin="round" stroke-miterlimit="4" stroke="#484848" stroke-width="2"><g><path d="M 98.6875 146.5L 10 10L 236.1051 140.5004C 235.0843 142.2654 234.5 144.3145 234.5 146.5L 98.6875 146.5Z"></path></g></g><g id="5.g-5_fr_1uonvn9icl0jl-stroke" fill="none" stroke-linecap="round" stroke-linejoin="round" stroke-miterlimit="4" stroke="#484848" stroke-width="2"><g><path d="M 172.5938 189.1563L 98.6875 146.5L 234.5 146.5C 234.5 148.6855 235.0842 150.7346 236.1051 152.4996L 172.5938 189.1563Z"></path></g></g></g><g id="g-root-4.g-4_fr_1lt0vedicl1cc-stroke" data-item-order="-403858" transform="translate(120.94699096679688, 369.5)"><g id="4.g-4_fr_1lt0vedicl1cc-stroke" fill="none" stroke-linecap="round" stroke-linejoin="round" stroke-miterlimit="4" stroke="#484848" stroke-width="2"><g><path d="M 172.5938 131.9692L 10 140.5004L 236.1051 10C 237.1585 11.8212 238.6767 13.3398 240.4976 14.3936L 172.5938 131.9692Z"></path></g></g><g id="4.g-4_fr_1lt0vedicl1cc-stroke" fill="none" stroke-linecap="round" stroke-linejoin="round" stroke-miterlimit="4" stroke="#484848" stroke-width="2"><g><path d="M 246.49995 89.313831L 172.59375 131.970031L 240.49755 14.394531C 242.26315 15.416431 244.31325 16.001331 246.49995 16.001331L 246.49995 89.313831Z"></path></g></g></g><g id="g-root-3.g-3_fr_1hdtud1ickyyv-stroke" data-item-order="-403854" transform="translate(357.447021484375, 369.5)"><g id="3.g-3_fr_1hdtud1ickyyv-stroke" fill="none" stroke-linecap="round" stroke-linejoin="round" stroke-miterlimit="4" stroke="#484848" stroke-width="2"><g><path d="M 83.9063 131.970031L 10 277.001331L 10 16.001331C 12.1867 16.001331 14.2368 15.416431 16.0024 14.394531L 83.9063 131.970031Z"></path></g></g><g id="3.g-3_fr_1hdtud1ickyyv-stroke" fill="none" stroke-linecap="round" stroke-linejoin="round" stroke-miterlimit="4" stroke="#484848" stroke-width="2"><g><path d="M 83.905753 46.6567L 83.905753 131.9692L 16.001953 14.3936C 17.822753 13.3398 19.341053 11.8211 20.394353 10L 83.905753 46.6567Z"></path></g></g></g><g id="g-root-2.g-2_fr_1cy0c8lickzr6-stroke" data-item-order="-403850" transform="translate(367.842041015625, 320.843994140625)"><g id="2.g-2_fr_1cy0c8lickzr6-stroke" fill="none" stroke-linecap="round" stroke-linejoin="round" stroke-miterlimit="4" stroke="#484848" stroke-width="2"><g><path d="M 236.1051 189.15625L 147.4176 52.65625L 11.6051 52.65625C 11.6051 54.84175 11.0209 56.89085 10 58.65585L 236.1051 189.15625Z"></path></g></g><g id="2.g-2_fr_1cy0c8lickzr6-stroke" fill="none" stroke-linecap="round" stroke-linejoin="round" stroke-miterlimit="4" stroke="#484848" stroke-width="2"><g><path d="M 147.4176 52.6563L 73.5114 10L 10 46.6567C 11.0209 48.4216 11.6051 50.4707 11.6051 52.6563L 147.4176 52.6563Z"></path></g></g></g><g id="g-root-1.g-1_fr_142dbzpicl0jx-stroke" data-item-order="-403846" transform="translate(357.447021484375, 227)"><g id="1.g-1_fr_142dbzpicl0jx-stroke" fill="none" stroke-linecap="round" stroke-linejoin="round" stroke-miterlimit="4" stroke="#484848" stroke-width="2"><g><path d="M 83.905753 18.5313L 246.499553 10L 20.394353 140.5004C 19.341053 138.6793 17.822753 137.1606 16.001953 136.1068L 83.905753 18.5313Z"></path></g></g><g id="1.g-1_fr_142dbzpicl0jx-stroke" fill="none" stroke-linecap="round" stroke-linejoin="round" stroke-miterlimit="4" stroke="#484848" stroke-width="2"><g><path d="M 10 57.22785L 83.9063 18.53125L 16.0024 136.10675C 14.2368 135.08485 12.1867 134.50005 10 134.50005L 10 57.22785Z"></path></g></g></g><g id="g-root-6.g-6_fr_zmjtv9icl1c8-stroke" data-item-order="-403842" transform="translate(283.4469909667969, 90.5)"><g id="6.g-6_fr_zmjtv9icl1c8-stroke" fill="none" stroke-linecap="round" stroke-linejoin="round" stroke-miterlimit="4" stroke="#484848" stroke-width="2"><g><path d="M 10 155.0313L 83.9062 10L 83.9062 271C 81.7195 271 79.6694 271.5849 77.9038 272.6068L 10 155.0313Z"></path></g></g><g id="6.g-6_fr_zmjtv9icl1c8-stroke" fill="none" stroke-linecap="round" stroke-linejoin="round" stroke-miterlimit="4" stroke="#484848" stroke-width="2"><g><path d="M 10 240.34375L 10 155.03125L 77.9038 272.60675C 76.083 273.66065 74.5647 275.17925 73.5114 277.00045L 10 240.34375Z"></path></g></g></g><g id="g-root-0.g-0_fr_v7cstxickyyr-stroke" data-item-order="-403838" transform="translate(345.447021484375, 351.5)"><g id="0.g-0_fr_v7cstxickyyr-stroke" fill="none" stroke-linecap="round" stroke-linejoin="round" stroke-miterlimit="4" stroke="#484848" stroke-width="2"><g><path d="M 11.6051 16.0004C 10.5843 17.7654 10 19.8145 10 22C 10 24.1855 10.5843 26.2346 11.6051 27.9996C 12.6585 29.8207 14.1767 31.3394 15.9976 32.3932C 17.7632 33.4151 19.8133 34 22 34C 24.1867 34 26.2368 33.4151 28.0024 32.3932C 29.8233 31.3394 31.3415 29.8207 32.3949 27.9996C 33.4157 26.2346 34 24.1855 34 22C 34 19.8145 33.4157 17.7654 32.3949 16.0004C 31.3415 14.1793 29.8233 12.6606 28.0024 11.6068C 26.2368 10.5849 24.1867 10 22 10C 19.8133 10 17.7632 10.5849 15.9976 11.6068C 14.1767 12.6606 12.6585 14.1793 11.6051 16.0004Z"></path></g></g></g><g id="g-root-soft_1lt0vedicnuh0-stroke" data-item-order="0" transform="translate(303.4469909667969, 207.5)"><g id="soft_1lt0vedicnuh0-stroke" fill="none" stroke-linecap="round" stroke-linejoin="round" stroke-miterlimit="4" stroke="#484848" stroke-width="2"><g><path d="M 10 10M 34 26L 26 34L 35.700001 43.700001C 37.373207 45.369617 38.313507 47.636265 38.313507 50C 38.313507 52.363735 37.373207 54.630379 35.699997 56.299999C 34.757553 57.230236 33.242451 57.230236 32.300003 56.300003L 11.7 35.700001C 10.769766 34.757553 10.769766 33.242451 11.7 32.300003L 32.299999 11.7C 32.752522 11.252122 33.363316 11.000619 34 11M 10 10M 34 42L 42 34L 32.299999 24.299999C 30.626793 22.630381 29.686493 20.363735 29.686493 18C 29.686493 15.636263 30.626793 13.369619 32.299999 11.7C 33.242451 10.769766 34.757553 10.769766 35.700001 11.7L 56.299999 32.299999C 57.230236 33.242451 57.230236 34.757553 56.300003 35.700001L 35.700001 56.299999C 35.247482 56.747879 34.636688 56.999382 34 57.000004"></path></g></g></g><g id="g-root-cog_74p9xid0hla-stroke" data-item-order="0" transform="translate(435.447021484375, 244.25)"><g id="cog_74p9xid0hla-stroke" fill="none" stroke-linecap="round" stroke-linejoin="round" stroke-miterlimit="4" stroke="#484848" stroke-width="2"><g><path d="M 10 10M 33.761398 36.450001L 30.7614 39.450001L 33.761398 42.450001M 10 10M 48.361401 36.450001L 51.361401 39.450001L 48.361401 42.450001M 10 10M 38.761398 42.450001L 42.761398 34.450001M 10 10M 23.76148 13.25L 24.56148 15.650021C 24.76148 16.45002 25.76148 17.05002 26.56148 16.850019L 28.961479 16.25C 31.1614 15.85 32.561401 18.250019 31.1614 19.850021L 29.361481 21.650021C 28.76148 22.250019 28.76148 23.250019 29.361481 23.850021L 31.1614 25.650021C 32.561401 27.250019 31.1614 29.85 28.961479 29.25L 26.56148 28.650021C 25.76148 28.45002 24.76148 28.850019 24.56148 29.850019L 23.76148 32.25C 23.16148 34.450001 20.16148 34.450001 19.56148 32.25L 18.76148 29.850019C 18.56148 29.05002 17.56148 28.45002 16.76148 28.650021L 14.361481 29.25C 12.16148 29.65 10.761484 27.250019 12.16148 25.650021L 13.96148 23.850021C 14.56148 23.250019 14.56148 22.250019 13.96148 21.650021L 12.16148 19.850021C 10.761484 18.250019 12.16148 15.65 14.361481 16.25L 16.76148 16.850019C 17.56148 17.05002 18.56148 16.650021 18.76148 15.650021L 19.56148 13.25C 20.16148 11.050006 23.16148 11.050006 23.76148 13.25ZM 10 10M 30.1 47.685001L 28.1001 55.724998M 10 10M 38.099998 47.685001L 40.099998 55.724998M 22.1001 55.724998L 46.099998 55.724998M 38.875 15.525021L 52.600201 15.525021C 54.800201 15.525021 56.600201 17.334021 56.600201 19.545021L 56.600201 43.665001C 56.600201 45.875999 54.800201 47.685001 52.600201 47.685001L 15.6001 47.685001C 13.4001 47.685001 11.600098 45.875999 11.600098 43.665001L 11.600098 37.125M 18.661999 22.75C 18.662001 24.406855 20.005146 25.75 21.662001 25.75C 23.318855 25.75 24.662001 24.406855 24.662001 22.75C 24.662001 21.093147 23.318855 19.75 21.662001 19.75C 20.005146 19.75 18.662001 21.093147 18.662001 22.75"></path></g></g></g><g id="g-root-tx__qnsg6ticnu2w-stroke" data-item-order="0" transform="translate(15, 315)"></g><g id="g-root-tx_android_dl2l11icmexa-stroke" data-item-order="0" transform="translate(435, 567)"></g><g id="g-root-tx_idea_hvwaglicmeq6-stroke" data-item-order="0" transform="translate(399, 171)"></g><g id="g-root-tx__m8lf5hicmdjc-stroke" data-item-order="0" transform="translate(543, 327)"></g><g id="g-root-tx__140hwqdicnuo2-stroke" data-item-order="0" transform="translate(15, 351)"></g><g id="g-root-tx__9592wlicl1ji-stroke" data-item-order="0" transform="translate(135, 159)"></g><g id="g-root-tx__1uonvn9icmfic-stroke" data-item-order="0" transform="translate(399, 135)"></g><g id="g-root-tx__1lyn56dickz5w-stroke" data-item-order="0" transform="translate(135, 123)"></g><g id="g-root-tx__1cw4wz9icmfpe-stroke" data-item-order="0" transform="translate(543, 363)"></g><g id="g-root-wind_18ntmutici8e9-stroke" data-item-order="0" transform="translate(459.447021484375, 375.5)"><g id="wind_18ntmutici8e9-stroke" fill="none" stroke-linecap="round" stroke-linejoin="round" stroke-miterlimit="4" stroke="#484848" stroke-width="2"><g><path d="M 51.900002 56.5L 15.8999 56.5L 15.8999 19.5C 15.8999 18.299999 16.6999 17.5 17.8999 17.5L 49.900002 17.5C 51.099998 17.5 51.900002 18.299999 51.900002 19.5L 51.900002 56.5ZM 56.5 56.5L 11.5 56.5M 25.8999 17.5L 25.8999 56.5M 41.900002 17.5L 41.900002 56.5M 27.8999 45.5L 39.900002 45.5M 34 45.5L 34 56.5M 15.8999 27.5L 51.900002 27.5M 15.8999 36.5L 51.900002 36.5M 15.8999 45.5L 51.900002 45.5M 31.9 17.5L 31.9 11.5L 49.900002 11.5L 49.900002 17.5"></path></g></g></g><g id="g-root-circ_1upam7picmepx-stroke" data-item-order="0" transform="translate(231.447021484375, 435.5)"><g id="circ_1upam7picmepx-stroke" fill="none" stroke-linecap="round" stroke-linejoin="round" stroke-miterlimit="4" stroke="#484848" stroke-width="2"><g><path d="M 34.099998 56.599602C 46.5266 56.599602 56.600201 46.526001 56.600201 34.099602C 56.600201 21.67314 46.5266 11.59961 34.099998 11.59961C 21.673641 11.59961 11.600006 21.67314 11.600006 34.099602C 11.600006 46.526001 21.673641 56.599602 34.099998 56.599602ZM 10 10M 20.400059 35.599602L 23.60006 43.199402L 30.200001 24.5996L 44.400002 24.5996M 10 10M 34.517601 30.7792L 43.314999 43.1992M 42.797401 30.7792L 34 43.1992"></path></g></g></g><g id="g-root-java_1lw5omticnsw7-stroke" data-item-order="0" transform="translate(363.447021484375, 471.5)"><g id="java_1lw5omticnsw7-stroke" fill="none" stroke-linecap="round" stroke-linejoin="round" stroke-miterlimit="4" stroke="#484848" stroke-width="2"><g><path d="M 13 20.007999L 55 20.007999C 55 20.007999 57 20.007999 57 22.007999L 57 46.007999C 57 46.007999 57 48.007999 55 48.007999L 13 48.007999C 13 48.007999 11 48.007999 11 46.007999L 11 22.007999C 11 22.007999 11 20.007999 13 20.007999M 22.062 28L 22.062 37C 22.062 38.656853 20.718855 40 19.062 40C 17.405146 40 16.062 38.656853 16.062 37M 26.062 40L 26.062 31C 26.062 29.343147 27.405146 28 29.062 28C 30.718855 28 32.062 29.343147 32.062 31L 32.062 40M 26.062 34.007999L 32.062 34.007999M 46.062 40L 46.062 31C 46.062 29.343147 47.405148 28 49.062 28C 50.718857 28 52.062 29.343147 52.062 31L 52.062 40M 46.062 34.007999L 52.062 34.007999M 42.062 28L 42.062 31C 42.062 34.245552 41.009331 37.403557 39.062004 40C 37.11467 37.403557 36.062004 34.245552 36.062004 31.000002L 36.062 28"></path></g></g></g><g id="g-root-tx__v8lr05icmfbc-stroke" data-item-order="0" transform="translate(171, 519)"></g><g id="g-root-tx__1utnoc5icmex8-stroke" data-item-order="0" transform="translate(435, 531)"></g><g id="g-root-tx__1lwrpx1icmebm-stroke" data-item-order="0" transform="translate(171, 555)"></g><g id="g-root-2_147d7udid0gzw-stroke" data-item-order="0" transform="translate(207.447021484375, 303.5)"><g id="2_147d7udid0gzw-stroke" fill="none" stroke-linecap="round" stroke-linejoin="round" stroke-miterlimit="4" stroke="#484848" stroke-width="2"><g><path d="M 19.5 31.0002C 23.91828 31.0002 27.5 29.56756 27.5 27.80024C 27.5 26.03294 23.91828 24.600239 19.5 24.600239C 15.08172 24.600239 11.5 26.03294 11.5 27.80024C 11.5 29.56756 15.08172 31.0002 19.5 31.0002ZM 11.5 27.79994L 11.5 40.599998C 11.5 42.400002 15.1 43.799999 19.5 43.799999C 23.9 43.799999 27.5 42.400002 27.5 40.599998L 27.5 27.79994M 51.202801 16.746601C 54.030602 16.746601 56.3228 15.50494 56.3228 13.97328C 56.3228 12.4416 54.030602 11.199936 51.202801 11.199936C 48.375198 11.199936 46.082802 12.4416 46.082802 13.97328C 46.082802 15.50494 48.375198 16.746601 51.202801 16.746601ZM 46.082802 13.97338L 46.082802 21.2267C 46.082802 22.720039 48.4296 24.00004 51.202801 24.00004C 53.9762 24.00004 56.3228 22.720039 56.3228 21.2267L 56.3228 13.97338M 51.202801 33.360199C 54.030602 33.360199 56.3228 32.118401 56.3228 30.5868C 56.3228 29.05514 54.030602 27.81348 51.202801 27.81348C 48.375198 27.81348 46.082802 29.05514 46.082802 30.5868C 46.082802 32.118401 48.375198 33.360199 51.202801 33.360199ZM 46.082802 30.587L 46.082802 37.840202C 46.082802 39.333599 48.4296 40.613602 51.202801 40.613602C 53.9762 40.613602 56.3228 39.333599 56.3228 37.840202L 56.3228 30.587M 51.202801 49.5466C 54.030602 49.5466 56.3228 48.305 56.3228 46.773201C 56.3228 45.2416 54.030602 44 51.202801 44C 48.375198 44 46.082802 45.2416 46.082802 46.773201C 46.082802 48.305 48.375198 49.5466 51.202801 49.5466ZM 46.082802 46.773399L 46.082802 54.026798C 46.082802 55.52 48.4296 56.799999 51.202801 56.799999C 53.9762 56.799999 56.3228 55.52 56.3228 54.026798L 56.3228 46.773399M 41.291599 17.4L 37.291599 17.4L 37.291599 50.599998L 41.291599 50.599998M 41.291599 34L 32.291599 34M 11.5 34.262199C 11.5 35.9538 14.959459 37.337601 19.50004 37.337601C 24.0406 37.337601 27.500059 35.9538 27.500059 34.262199"></path></g></g></g></g></g></svg>