<?xml version="1.0" encoding="utf-8" standalone="yes"?>
<!DOCTYPE svg PUBLIC "-//W3C//DTD SVG 1.1//EN" "http://www.w3.org/Graphics/SVG/1.1/DTD/svg11.dtd">
<svg width="809" height="514" viewBox="0 0 809 514" style="fill:none;stroke:none;fill-rule:evenodd;clip-rule:evenodd;stroke-linecap:round;stroke-linejoin:round;stroke-miterlimit:1.5;" version="1.1" xmlns="http://www.w3.org/2000/svg" xmlns:xlink="http://www.w3.org/1999/xlink"><style class="text-font-style fontImports" data-font-family="Roboto">@import url(https://fonts.googleapis.com/css2?family=Roboto:wght@400;700&amp;amp;display=block);</style><g id="items" style="isolation: isolate"><g id="blend" style="mix-blend-mode: normal"><g id="g-root-cr_5_cr-small-5_dgpr8bz0rkzp-fill" data-item-order="999886203" transform="translate(172.1328125, 184.025146484375)"><g id="cr_5_cr-small-5_dgpr8bz0rkzp-fill" stroke="none" fill="#fff2e5"><g><path d="M 10 46C 10 65.882251 26.117749 82 46 82C 65.882251 82 82 65.882251 82 46C 82 26.117749 65.882251 10 46 10C 26.117749 10 10 26.117749 10 46"></path></g></g></g><g id="g-root-sy_5_line_dgpr8bz0rkzq-fill" data-item-order="999886208" transform="translate(199.130126953125, 269.31689453125)"></g><g id="g-root-cr_4_cr-small-4_4lp82jz0rimn-fill" data-item-order="999886211" transform="translate(222.375, 344.9501953125)"><g id="cr_4_cr-small-4_4lp82jz0rimn-fill" stroke="none" fill="#fffbda"><g><path d="M 10 46C 10 65.882251 26.117749 82 46 82C 65.882251 82 82 65.882251 82 46C 82 26.117749 65.882251 10 46 10C 26.117749 10 10 26.117749 10 46"></path></g></g></g><g id="g-root-sy_4_line_91iq6zz0rim8-fill" data-item-order="999886216" transform="translate(303.4609375, 402.5267333984375)"></g><g id="g-root-cr_3_cr-small-3_5vpy3z0rjex-fill" data-item-order="999886219" transform="translate(391.5625, 344.9501953125)"><g id="cr_3_cr-small-3_5vpy3z0rjex-fill" stroke="none" fill="#f4ffdc"><g><path d="M 10 46C 10 65.882251 26.117749 82 46 82C 65.882251 82 82 65.882251 82 46C 82 26.117749 65.882251 10 46 10C 26.117749 10 10 26.117749 10 46"></path></g></g></g><g id="g-root-sy_3_line_5vpy3z0rjey-fill" data-item-order="999886224" transform="translate(462.2607421875, 267.5068359375)"></g><g id="g-root-cr_2_cr-small-2_5vpy3z0rjez-fill" data-item-order="999886227" transform="translate(441.9345703125, 184.025146484375)"><g id="cr_2_cr-small-2_5vpy3z0rjez-fill" stroke="none" fill="#e3fff2"><g><path d="M 10 46C 10 65.882251 26.117749 82 46 82C 65.882251 82 82 65.882251 82 46C 82 26.117749 65.882251 10 46 10C 26.117749 10 10 26.117749 10 46"></path></g></g></g><g id="g-root-sy_2_line_1ur69srz0rk04-fill" data-item-order="999886232" transform="translate(390.900390625, 128.64697265625)"></g><g id="g-root-sy_2_line-start_1ur69srz0rk05-fill" data-item-order="999886234" transform="translate(446.38995361328125, 165.4407958984375)"></g><g id="g-root-cr_1_cr-small-1_1ur69srz0rk06-fill" data-item-order="999886237" transform="translate(307, 84)"><g id="cr_1_cr-small-1_1ur69srz0rk06-fill" stroke="none" fill="#e8f9ff"><g><path d="M 10 46C 10 65.882251 26.117749 82 46 82C 65.882251 82 82 65.882251 82 46C 82 26.117749 65.882251 10 46 10C 26.117749 10 10 26.117749 10 46"></path></g></g></g><g id="g-root-sy_1_line_1lvj9jvz0rksv-fill" data-item-order="999886242" transform="translate(228.900390625, 128.99688720703125)"></g><g id="g-root-cr_0_cr-big_1qbcrobz0rksg-fill" data-item-order="999886287" transform="translate(259, 180)"><g id="cr_0_cr-big_1qbcrobz0rksg-fill" stroke="none" fill="#f5f5f5"><g><path d="M 10 94C 10.000002 140.391921 47.608083 178.000002 94.000002 178.000002C 140.391921 178.000002 178.000002 140.391921 178.000002 94.000002C 178.000002 47.608083 140.391921 10.000002 94.000002 10.000002C 47.608083 10.000002 10.000002 47.608083 10.000002 94.000002"></path></g></g></g><g id="g-root-ic_reop_v5i1p7z0hptt-fill" data-item-order="1000000000" transform="translate(313, 204)"></g><g id="g-root-ic_chai_18gygwrz0kidc-fill" data-item-order="1000000000" transform="translate(454, 196)"></g><g id="g-root-tx__1hgc8ijz0rifd-fill" data-item-order="1000000000" transform="translate(109, 210)"><g id="tx__1hgc8ijz0rifd-fill" stroke="none" fill="#484848"><g><text style="font: 20px Roboto, sans-serif; white-space: pre;" font-size="20px" font-family="Roboto, sans-serif"><tspan x="16" y="34" dominant-baseline="ideographic">卸载</tspan></text></g></g></g><g id="g-root-tx__144vq57z0rk0c-fill" data-item-order="1000000000" transform="translate(529, 198)"><g id="tx__144vq57z0rk0c-fill" stroke="none" fill="#484848"><g><text style="font: 20px Roboto, sans-serif; white-space: pre;" font-size="20px" font-family="Roboto, sans-serif"><tspan x="12" y="46" dominant-baseline="ideographic">链接：验证、准备和解析</tspan></text></g></g></g><g id="g-root-ic_tras_qu1ouzz0rifi-fill" data-item-order="1000000000" transform="translate(184, 196)"></g><g id="g-root-tx__zlbjtnz0hp1k-fill" data-item-order="1000000000" transform="translate(289.0009765625, 288.0098876953125)"><g id="tx__zlbjtnz0hp1k-fill" stroke="none" fill="#4e88e7"><g><text style="font: 20px Roboto, sans-serif; white-space: pre;" font-size="20px" font-family="Roboto, sans-serif"><tspan x="14" y="34" dominant-baseline="ideographic">类生命周期</tspan></text></g></g></g><g id="g-root-tx__1d0iqe3z0rj7n-fill" data-item-order="1000000000" transform="translate(427, 432)"><g id="tx__1d0iqe3z0rj7n-fill" stroke="none" fill="#484848"><g><text style="font: 20px Roboto, sans-serif; white-space: pre;" font-size="20px" font-family="Roboto, sans-serif"><tspan x="12" y="34" dominant-baseline="ideographic">初始化</tspan></text></g></g></g><g id="g-root-ic_page_1qaqdqzz0swlj-fill" data-item-order="1000000000" transform="translate(319, 96)"></g><g id="g-root-ic_1_1hgc8ijz0yive-fill" data-item-order="1000000000" transform="translate(235, 357)"></g><g id="g-root-ic_rust_18itt0bz11ds5-fill" data-item-order="1000000000" transform="translate(403, 357)"></g><g id="g-root-tx__1d0iqe3z0rj7m-fill" data-item-order="1000000000" transform="translate(211, 432)"><g id="tx__1d0iqe3z0rj7m-fill" stroke="none" fill="#484848"><g><text style="font: 20px Roboto, sans-serif; white-space: pre;" font-size="20px" font-family="Roboto, sans-serif"><tspan x="16" y="34" dominant-baseline="ideographic">使用</tspan></text></g></g></g><g id="g-root-tx__zp280rz0rksl-fill" data-item-order="1000000000" transform="translate(319, 48)"><g id="tx__zp280rz0rksl-fill" stroke="none" fill="#484848"><g><text style="font: 20px Roboto, sans-serif; white-space: pre;" font-size="20px" font-family="Roboto, sans-serif"><tspan x="14" y="34" dominant-baseline="ideographic">加载</tspan></text></g></g></g><g id="g-root-cr_5_cr-small-5_dgpr8bz0rkzp-stroke" data-item-order="999886203" transform="translate(172.1328125, 184.025146484375)"><g id="cr_5_cr-small-5_dgpr8bz0rkzp-stroke" fill="none" stroke-linecap="round" stroke-linejoin="round" stroke-miterlimit="4" stroke="#de8431" stroke-width="2"><g><path d="M 10 46C 10 65.882251 26.117749 82 46 82C 65.882251 82 82 65.882251 82 46C 82 26.117749 65.882251 10 46 10C 26.117749 10 10 26.117749 10 46"></path></g></g></g><g id="g-root-sy_5_line_dgpr8bz0rkzq-stroke" data-item-order="999886208" transform="translate(199.130126953125, 269.31689453125)"><g id="sy_5_line_dgpr8bz0rkzq-stroke" fill="none" stroke-linecap="round" stroke-linejoin="round" stroke-miterlimit="4" stroke="#969696" stroke-width="2"><g><path d="M 10.079895 11.933105C 11.359895 39.913105 20.639895 65.793105 35.669895 87.383105"></path><path d="M 17.079895 17.533105L 10.079895 11.533105L 4.079895 18.433105" stroke-dasharray="none"></path></g></g></g><g id="g-root-cr_4_cr-small-4_4lp82jz0rimn-stroke" data-item-order="999886211" transform="translate(222.375, 344.9501953125)"><g id="cr_4_cr-small-4_4lp82jz0rimn-stroke" fill="none" stroke-linecap="round" stroke-linejoin="round" stroke-miterlimit="4" stroke="#e0cb15" stroke-width="2"><g><path d="M 10 46C 10 65.882251 26.117749 82 46 82C 65.882251 82 82 65.882251 82 46C 82 26.117749 65.882251 10 46 10C 26.117749 10 10 26.117749 10 46"></path></g></g></g><g id="g-root-sy_4_line_91iq6zz0rim8-stroke" data-item-order="999886216" transform="translate(303.4609375, 402.5267333984375)"><g id="sy_4_line_91iq6zz0rim8-stroke" fill="none" stroke-linecap="round" stroke-linejoin="round" stroke-miterlimit="4" stroke="#969696" stroke-width="2"><g><path d="M 11.999023 11.003296C 23.979023 14.233296 36.589023 15.973296 49.589023 15.973296C 63.319023 15.973296 77.679023 13.883296 90.709023 10.003296"></path><path d="M 19.299023 6.003296L 11.499023 10.803296L 16.299023 18.603296" stroke-dasharray="none"></path></g></g></g><g id="g-root-cr_3_cr-small-3_5vpy3z0rjex-stroke" data-item-order="999886219" transform="translate(391.5625, 344.9501953125)"><g id="cr_3_cr-small-3_5vpy3z0rjex-stroke" fill="none" stroke-linecap="round" stroke-linejoin="round" stroke-miterlimit="4" stroke="#92bd39" stroke-width="2"><g><path d="M 10 46C 10 65.882251 26.117749 82 46 82C 65.882251 82 82 65.882251 82 46C 82 26.117749 65.882251 10 46 10C 26.117749 10 10 26.117749 10 46"></path></g></g></g><g id="g-root-sy_3_line_5vpy3z0rjey-stroke" data-item-order="999886224" transform="translate(462.2607421875, 267.5068359375)"><g id="sy_3_line_5vpy3z0rjey-stroke" fill="none" stroke-linecap="round" stroke-linejoin="round" stroke-miterlimit="4" stroke="#969696" stroke-width="2"><g><path d="M 11.099243 86.133174C 25.549243 64.203174 34.169243 38.083174 34.739243 10.003174"></path><path d="M 8.699243 77.503174L 10.799243 86.503174L 19.699243 84.403174" stroke-dasharray="none"></path></g></g></g><g id="g-root-cr_2_cr-small-2_5vpy3z0rjez-stroke" data-item-order="999886227" transform="translate(441.9345703125, 184.025146484375)"><g id="cr_2_cr-small-2_5vpy3z0rjez-stroke" fill="none" stroke-linecap="round" stroke-linejoin="round" stroke-miterlimit="4" stroke="#3cc583" stroke-width="2"><g><path d="M 10 46C 10 65.882251 26.117749 82 46 82C 65.882251 82 82 65.882251 82 46C 82 26.117749 65.882251 10 46 10C 26.117749 10 10 26.117749 10 46"></path></g></g></g><g id="g-root-sy_2_line_1ur69srz0rk04-stroke" data-item-order="999886232" transform="translate(390.900390625, 128.64697265625)"><g id="sy_2_line_1ur69srz0rk04-stroke" fill="none" stroke-linecap="round" stroke-linejoin="round" stroke-miterlimit="4" stroke="#969696" stroke-width="2"><g><path d="M 74.299634 55.543052C 57.679634 34.913052 35.479634 18.973052 9.999634 10.003052"></path><path d="M 65.399634 55.203052L 74.599634 56.003052L 75.299634 46.803052" stroke-dasharray="none"></path></g></g></g><g id="g-root-sy_2_line-start_1ur69srz0rk05-stroke" data-item-order="999886234" transform="translate(446.38995361328125, 165.4407958984375)"><g id="sy_2_line-start_1ur69srz0rk05-stroke" fill="none" stroke-linecap="round" stroke-linejoin="round" stroke-miterlimit="4" stroke="#969696" stroke-width="2"><g><path d="M 20.233429 10L 19.125366 19.125367L 10 18.017304"></path></g></g></g><g id="g-root-cr_1_cr-small-1_1ur69srz0rk06-stroke" data-item-order="999886237" transform="translate(307, 84)"><g id="cr_1_cr-small-1_1ur69srz0rk06-stroke" fill="none" stroke-linecap="round" stroke-linejoin="round" stroke-miterlimit="4" stroke="#1eabda" stroke-width="2"><g><path d="M 10 46C 10 65.882251 26.117749 82 46 82C 65.882251 82 82 65.882251 82 46C 82 26.117749 65.882251 10 46 10C 26.117749 10 10 26.117749 10 46"></path></g></g></g><g id="g-root-sy_1_line_1lvj9jvz0rksv-stroke" data-item-order="999886242" transform="translate(228.900390625, 128.99688720703125)"><g id="sy_1_line_1lvj9jvz0rksv-stroke" fill="none" stroke-linecap="round" stroke-linejoin="round" stroke-miterlimit="4" stroke="#969696" stroke-width="2"><g><path d="M 73.399603 10.703125C 48.109603 20.233125 26.209603 36.663125 9.999603 57.713125"></path><path d="M 70.399603 19.003125L 73.899603 10.603125L 65.399603 7.003125" stroke-dasharray="none"></path></g></g></g><g id="g-root-cr_0_cr-big_1qbcrobz0rksg-stroke" data-item-order="999886287" transform="translate(259, 180)"><g id="cr_0_cr-big_1qbcrobz0rksg-stroke" fill="none" stroke-linecap="round" stroke-linejoin="round" stroke-miterlimit="4" stroke="#a3a3a3" stroke-width="2"><g><path d="M 10 94C 10.000002 140.391921 47.608083 178.000002 94.000002 178.000002C 140.391921 178.000002 178.000002 140.391921 178.000002 94.000002C 178.000002 47.608083 140.391921 10.000002 94.000002 10.000002C 47.608083 10.000002 10.000002 47.608083 10.000002 94.000002"></path></g></g></g><g id="g-root-ic_reop_v5i1p7z0hptt-stroke" data-item-order="1000000000" transform="translate(313, 204)"><g id="ic_reop_v5i1p7z0hptt-stroke" fill="none" stroke-linecap="round" stroke-linejoin="round" stroke-miterlimit="4" stroke="#a3a3a3" stroke-width="2"><g><path d="M 33.75 40C 33.75 43.451782 36.548222 46.25 40 46.25C 43.451782 46.25 46.25 43.451782 46.25 40C 46.25 36.548222 43.451782 33.75 40 33.75C 36.548222 33.75 33.75 36.548222 33.75 40M 56.767502 24.996651C 53.729248 21.601151 49.73175 19.208075 45.303749 18.13405C 40.875748 17.059999 36.226002 17.355625 31.969799 18.981775C 27.713501 20.607925 24.051226 23.487999 21.467449 27.240925C 18.883675 30.993851 17.500175 35.442749 17.5 39.999249L 17.5 41.881748M 23.232426 55.003502C 26.270525 58.399002 30.267849 60.792 34.695576 61.866001C 39.123249 62.94025 43.772751 62.644749 48.028999 61.019001C 52.285252 59.393002 55.947498 56.5135 58.531498 52.76075C 61.115498 49.008251 62.499252 44.55975 62.5 40.003502L 62.5 38.131001M 10 10M 56.875 43.748749L 62.5 38.123749L 68.125 43.748749M 23.125 36.248749L 17.5 41.873749L 11.875 36.248749"></path></g></g></g><g id="g-root-ic_chai_18gygwrz0kidc-stroke" data-item-order="1000000000" transform="translate(454, 196)"><g id="ic_chai_18gygwrz0kidc-stroke" fill="none" stroke-linecap="round" stroke-linejoin="round" stroke-miterlimit="4" stroke="#3cc583" stroke-width="2"><g><path d="M 10 10M 56.5 11.5L 48.099998 19.9M 10 10M 19.9 48.099998L 11.5 56.5M 10 10M 40 28L 28 40M 50.600029 17.400028C 50.600029 17.400028 55.100056 21.900055 50.600029 26.400084L 45.399963 31.600145C 45.399963 31.600145 40.899937 36.100174 36.39991 31.600145C 31.899881 27.100119 31.899881 27.100119 36.39991 22.60009L 41.599972 17.400028C 41.599972 17.400028 46.099998 12.9 50.600029 17.400028M 31.600027 36.400028C 31.600027 36.400028 36.100056 40.900055 31.600027 45.400082L 26.399963 50.600147C 26.399963 50.600147 21.899937 55.100174 17.39991 50.600147C 12.899881 46.100117 12.899881 46.100117 17.39991 41.60009L 22.599972 36.400028C 22.599972 36.400028 27.1 31.9 31.600027 36.400028"></path></g></g></g><g id="g-root-tx__1hgc8ijz0rifd-stroke" data-item-order="1000000000" transform="translate(109, 210)"></g><g id="g-root-tx__144vq57z0rk0c-stroke" data-item-order="1000000000" transform="translate(529, 198)"></g><g id="g-root-ic_tras_qu1ouzz0rifi-stroke" data-item-order="1000000000" transform="translate(184, 196)"><g id="ic_tras_qu1ouzz0rifi-stroke" fill="none" stroke-linecap="round" stroke-linejoin="round" stroke-miterlimit="4" stroke="#de8431" stroke-width="2"><g><path d="M 10 10M 24.10004 24.5L 20.70002 21.1L 24.10004 14.1L 31.9 11.5L 37.099998 14.9L 37.099998 21.9L 38.900002 23.700001L 37.299999 25.299999C 35.700001 26.9 33.299999 27.299999 31.299999 26.1L 30.299999 25.5L 24.10004 24.5ZM 30.1 25.30002L 30.1 18.900021M 45.5 15.5C 45.5 15.5 50.5 11.5 56.5 11.5M 10 10M 42.099998 32.5L 36.5 54.700001C 36.299999 55.700001 35.299999 56.5 34.299999 56.5L 19.300041 56.5C 18.300041 56.5 17.300039 55.700001 17.10004 54.700001L 11.5 32.5L 42.099998 32.5ZM 10 10M 23.900021 56.299999L 20.900021 32.5M 29.70002 56.299999L 32.700001 32.5M 13.5 40.5L 40.099998 40.5M 15.5 48.5L 38.099998 48.5"></path></g></g></g><g id="g-root-tx__zlbjtnz0hp1k-stroke" data-item-order="1000000000" transform="translate(289.0009765625, 288.0098876953125)"></g><g id="g-root-tx__1d0iqe3z0rj7n-stroke" data-item-order="1000000000" transform="translate(427, 432)"></g><g id="g-root-ic_page_1qaqdqzz0swlj-stroke" data-item-order="1000000000" transform="translate(319, 96)"><g id="ic_page_1qaqdqzz0swlj-stroke" fill="none" stroke-linecap="round" stroke-linejoin="round" stroke-miterlimit="4" stroke="#1eabda" stroke-width="2"><g><path d="M 21.84506 49.493401C 22.36972 49.493401 22.793259 49.069801 22.793259 48.5452L 22.793259 38.0392C 22.793259 37.7864 22.69212 37.539803 22.508801 37.362801L 20.612419 35.5424C 20.435421 35.365402 20.1952 35.270599 19.948681 35.270599L 12.784121 35.270599C 12.25946 35.270599 11.835938 35.694 11.835938 36.2188L 11.835938 48.5452C 11.835938 49.069801 12.25946 49.493401 12.784121 49.493401L 21.84506 49.493401ZM 38.583401 49.493401C 39.108002 49.493401 39.531601 49.069801 39.531601 48.5452L 39.531601 38.0392C 39.531601 37.7864 39.430401 37.539803 39.247002 37.362801L 37.350601 35.5424C 37.173599 35.365402 36.933399 35.270599 36.687 35.270599L 29.522421 35.270599C 28.99774 35.270599 28.574221 35.694 28.574221 36.2188L 28.574221 48.5452C 28.574221 49.069801 28.99774 49.493401 29.522421 49.493401L 38.583401 49.493401ZM 55.216202 49.493401C 55.740799 49.493401 56.164398 49.069801 56.164398 48.5452L 56.164398 38.0392C 56.164398 37.7864 56.063202 37.539803 55.879799 37.362801L 53.983601 35.5424C 53.806599 35.365402 53.566399 35.270599 53.319801 35.270599L 46.155201 35.270599C 45.6306 35.270599 45.207001 35.694 45.207001 36.2188L 45.207001 48.5452C 45.207001 49.069801 45.6306 49.493401 46.155201 49.493401L 55.216202 49.493401ZM 10 10M 42.042999 26.889641L 48.5672 27.61422L 49.291599 21.0898M 19.949219 26.89006C 22.201439 23.508881 27.27454 18.50684 33.753799 18.50684C 40.233002 18.50684 45.024399 22.59314 47.6306 26.89006"></path></g></g></g><g id="g-root-ic_1_1hgc8ijz0yive-stroke" data-item-order="1000000000" transform="translate(235, 357)"><g id="ic_1_1hgc8ijz0yive-stroke" fill="none" stroke-linecap="round" stroke-linejoin="round" stroke-miterlimit="4" stroke="#e0cb15" stroke-width="2"><g><path d="M 49 34L 54 34C 54.552284 34 55 34.447716 55 35L 55 44C 55 45.104568 54.104568 46 53 46L 47 46C 45.895432 46 45 45.104568 45 44L 45 40M 17 24L 13 24L 13 14C 13 12.895431 13.895431 12 15 12L 21 12C 22.104568 12 23 12.895431 23 14L 23 20M 29 24C 29 26.209139 30.790861 28 33 28C 35.209137 28 37 26.209139 37 24C 37 21.790861 35.209137 20 33 20C 30.790861 20 29 21.790861 29 24ZM 49 34C 49 32.895432 48.104568 32 47 32L 30 32C 27.238577 32 25 29.761423 25 27L 25 22C 25 20.895432 24.104568 20 23 20C 21.895432 20 21 20.895432 21 22L 21 26C 20.670038 30.333153 23.369057 34.322426 27.514 35.627998C 28.389147 35.860729 28.998722 36.652439 29 37.557999L 29 41.667999C 29.000261 41.887848 28.963758 42.106194 28.892 42.313999L 25.184 53.161999C 24.72094 54.164993 25.158764 55.353462 26.161844 55.816338C 27.164925 56.279213 28.353312 55.841167 28.816 54.838001L 33 45.771999L 37.183998 54.838001C 37.64669 55.841167 38.835075 56.279213 39.838158 55.816338C 40.841236 55.353462 41.27906 54.164993 40.816002 53.161999L 37.108002 42.313999C 37.03624 42.106194 36.999741 41.887848 37 41.667999L 37 38C 37 36.895432 37.895432 36 39 36L 47 36C 48.104568 36 49 35.104568 49 34Z"></path></g></g></g><g id="g-root-ic_rust_18itt0bz11ds5-stroke" data-item-order="1000000000" transform="translate(403, 357)"><g id="ic_rust_18itt0bz11ds5-stroke" fill="none" stroke-linecap="round" stroke-linejoin="round" stroke-miterlimit="4" stroke="#92bd39" stroke-width="2"><g><path d="M 56.66 38C 56.752663 37.474556 56.631535 36.933868 56.323547 36.49818C 56.015564 36.062492 55.546257 35.767929 55.02 35.68L 53.919998 35.48C 53.919998 35 53.919998 34.5 53.919998 34C 53.919998 33.5 53.919998 33 53.919998 32.52L 55.02 32.32C 55.546257 32.232071 56.015564 31.937506 56.323547 31.50182C 56.631535 31.066132 56.752663 30.525444 56.66 30C 56.467129 28.911726 55.428112 28.186203 54.34 28.379999L 53.240002 28.58C 52.962982 27.624912 52.622219 26.68948 52.220001 25.780001L 53.18 25.24C 54.140697 24.687586 54.471802 23.461048 53.919605 22.500225C 53.367409 21.539406 52.140945 21.208021 51.18 21.76L 50.220001 22.32C 49.637897 21.50609 49.003212 20.731104 48.32 20L 49.040001 19.16C 49.567448 18.313282 49.390305 17.207355 48.624783 16.567741C 47.859261 15.928127 46.739456 15.950422 46 16.619999L 45.299999 17.48C 44.464066 16.92321 43.588379 16.428549 42.68 16L 43.060001 14.96C 43.246361 14.458923 43.224354 13.904094 42.998894 13.419352C 42.773434 12.934609 42.363285 12.56031 41.860001 12.38C 40.821724 12.004924 39.675907 12.542027 39.299999 13.58L 38.919998 14.639999C 37.961151 14.388955 36.985207 14.208473 36 14.1L 36 13C 36 11.895431 35.104568 11 34 11C 32.895432 11 32 11.895431 32 13L 32 14.1C 31.014788 14.208473 30.038843 14.388955 29.079998 14.639999L 28.700001 13.58C 28.324093 12.542027 27.178274 12.004924 26.139999 12.38C 25.636715 12.56031 25.226566 12.934609 25.001106 13.419352C 24.775644 13.904094 24.753639 14.458923 24.939999 14.96L 25.32 16C 24.425331 16.430275 23.563066 16.924906 22.740002 17.48L 22 16.619999C 21.264023 15.881456 20.084145 15.832222 19.289196 16.506882C 18.494247 17.181543 18.350965 18.353722 18.959999 19.200001L 19.68 20C 18.998158 20.718227 18.363499 21.479818 17.779999 22.279999L 16.82 21.720001C 15.859053 21.168022 14.63259 21.499405 14.080395 22.460226C 13.528198 23.421047 13.859303 24.647587 14.82 25.200001L 15.780001 25.74C 15.377783 26.649479 15.037018 27.584913 14.76 28.540001L 13.66 28.34C 13.13159 28.247684 12.588244 28.371502 12.152001 28.683641C 11.715758 28.995781 11.423187 29.470076 11.34 30C 11.247336 30.525444 11.368466 31.066132 11.676452 31.50182C 11.984437 31.937506 12.453743 32.232071 12.98 32.32L 14.08 32.52C 14.08 33 14.08 33.5 14.08 34C 14.08 34.5 14.08 35 14.08 35.48L 12.98 35.68C 12.453743 35.767929 11.984437 36.062492 11.676452 36.49818C 11.368466 36.933868 11.247336 37.474556 11.34 38C 11.532871 39.088272 12.57189 39.813797 13.66 39.620003L 14.76 39.419998C 15.037018 40.375092 15.377783 41.310524 15.780001 42.220001L 14.82 42.759998C 13.859303 43.312412 13.528198 44.538952 14.080395 45.499771C 14.63259 46.460594 15.859053 46.791977 16.82 46.239998L 17.780001 45.68C 18.362103 46.493908 18.996788 47.268894 19.68 48L 18.959999 48.84C 18.432552 49.686718 18.609695 50.792645 19.375217 51.432259C 20.140739 52.071873 21.260544 52.049576 22 51.380001L 22.700001 50.52C 23.535936 51.07679 24.411623 51.571453 25.32 52L 24.939999 53.040001C 24.753639 53.541077 24.775644 54.095905 25.001106 54.58065C 25.226566 55.065392 25.636715 55.43969 26.139999 55.619999C 27.178274 55.995075 28.324093 55.457973 28.700001 54.419998L 29.08 53.360001C 30.03628 53.644802 31.012259 53.858715 31.999998 53.999996L 32 55.099998C 32 56.204571 32.895432 57.099998 34 57.099998C 35.104568 57.099998 36 56.204571 36 55.099998L 36 54C 36.985207 53.891525 37.961151 53.71104 38.919998 53.459995L 39.299999 54.52C 39.675907 55.557972 40.821724 56.095078 41.860001 55.720001C 42.363285 55.539688 42.773434 55.16539 42.998894 54.680649C 43.224354 54.195908 43.246361 53.641075 43.060001 53.139999L 42.68 52C 43.574669 51.569729 44.436935 51.075096 45.260002 50.52L 45.959999 51.380001C 46.672489 52.230358 47.939396 52.342197 48.789841 51.62981C 49.640285 50.917427 49.752281 49.650532 49.040001 48.799999L 48.32 48C 49.001842 47.281773 49.636501 46.52018 50.220001 45.720001L 51.18 46.279999C 52.141003 46.832592 53.368019 46.501354 53.920395 45.540226C 54.472767 44.579098 54.141254 43.352154 53.18 42.799999L 52.220001 42.259998C 52.622219 41.350521 52.962982 40.415089 53.240002 39.459999L 54.34 39.66C 54.868408 39.752316 55.411755 39.628498 55.848 39.31636C 56.284241 39.004219 56.576813 38.529922 56.66 38ZM 47.5 27.5C 45.311787 22.96063 40.993027 19.821079 36 19.139999M 45.259998 44C 47.973896 41.416367 49.352432 37.730442 49 34C 48.995617 33.100586 48.908585 32.203484 48.740002 31.32M 26.879999 47.200001C 29.067213 48.381485 31.514076 49.000072 34 49C 36.774384 49.05521 39.493645 48.221214 41.760002 46.620003M 19.26 31.32C 19.091415 32.203484 19.004383 33.100586 19 34C 19.004951 38.098686 20.689106 42.016338 23.66 44.84M 22.299999 24.639999C 21.591618 25.520658 20.987595 26.480383 20.5 27.500002M 36 19.139999C 33.41143 18.80619 30.780512 19.143663 28.359999 20.119999M 45.259998 44C 43.744514 43.233345 42.439846 42.107212 41.459999 40.720001C 40.763901 39.70314 40.268364 38.562721 40 37.360001C 39.897694 37.069603 39.770557 36.788567 39.619999 36.52C 42.768612 35.290337 44.588753 31.986357 43.945675 28.667881C 43.302597 25.349405 40.380028 22.964499 37 23C 28.280001 23.119999 27.66 22.639999 26.68 23.52C 25.700001 24.4 26.219999 24.18 23.66 44.84M 27.379999 47.459999L 28.6 37L 34 37C 34.990376 37.033535 35.850117 37.692402 36.139999 38.639999C 36.614311 40.392746 37.460106 42.022953 38.619999 43.419998C 39.476109 44.671558 40.553825 45.756058 41.799995 46.619999M 29.799999 27L 37 27C 38.656853 27 40 28.343147 40 30C 40 31.656855 38.656853 33 37 33L 29 33Z"></path></g></g></g><g id="g-root-tx__1d0iqe3z0rj7m-stroke" data-item-order="1000000000" transform="translate(211, 432)"></g><g id="g-root-tx__zp280rz0rksl-stroke" data-item-order="1000000000" transform="translate(319, 48)"></g></g></g></svg>