<?xml version="1.0" encoding="UTF-8"?>
<!DOCTYPE svg PUBLIC "-//W3C//DTD SVG 1.1//EN" "http://www.w3.org/Graphics/SVG/1.1/DTD/svg11.dtd">
<svg version="1.2" xmlns="http://www.w3.org/2000/svg" xmlns:xlink="http://www.w3.org/1999/xlink" x="0" y="0" width="408" height="398" viewBox="0 0 408 398">
<style type="text/css"><![CDATA[
text { font:12px Dialog; }
]]></style>
<rect x="-1073" y="-1168" width="2760" height="2736" style="fill:rgb(255,255,255);stroke:none" />
<clipPath id="clip1"><path d="M14,15 L394,15 L394,383 L14,383 Z M25,164 C20.5817184,164 17,167.5817261 17,172 L17,224 C17,228.4182739 20.5817184,232 25,232 L176,232 C180.4182739,232 184,228.4182739 184,224 L184,172 C184,167.5817261 180.4182739,164 176,164 Z" /></clipPath>
<path d="M194,198 L194,44.7487488 C194,40.3327484 197.5839996,36.7487488 202,36.7487488 L220,36.7487488" style="fill:none;stroke:rgb(85,142,213)" clip-path="url(#clip1)" />
<clipPath id="clip2"><path d="M14,15 L394,15 L394,383 L14,383 Z M25,164 C20.5817184,164 17,167.5817261 17,172 L17,224 C17,228.4182739 20.5817184,232 25,232 L176,232 C180.4182739,232 184,228.4182739 184,224 L184,172 C184,167.5817261 180.4182739,164 176,164 Z" /></clipPath>
<path d="M194,198 L194,98.9300003 C194,94.5139999 197.5839996,90.9300003 202,90.9300003 L220,90.9300003" style="fill:none;stroke:rgb(85,142,213)" clip-path="url(#clip2)" />
<clipPath id="clip3"><path d="M14,15 L394,15 L394,383 L14,383 Z M25,164 C20.5817184,164 17,167.5817261 17,172 L17,224 C17,228.4182739 20.5817184,232 25,232 L176,232 C180.4182739,232 184,228.4182739 184,224 L184,172 C184,167.5817261 180.4182739,164 176,164 Z" /></clipPath>
<path d="M194,198 L194,152.7487488 C194,148.3327484 197.5839996,144.7487488 202,144.7487488 L220,144.7487488" style="fill:none;stroke:rgb(85,142,213)" clip-path="url(#clip3)" />
<clipPath id="clip4"><path d="M14,15 L394,15 L394,383 L14,383 Z M25,164 C20.5817184,164 17,167.5817261 17,172 L17,224 C17,228.4182739 20.5817184,232 25,232 L176,232 C180.4182739,232 184,228.4182739 184,224 L184,172 C184,167.5817261 180.4182739,164 176,164 Z" /></clipPath>
<path d="M194,198 C194,198.4609222 197.5839996,198.8350067 202,198.8350067 L220,198.8350067" style="fill:none;stroke:rgb(85,142,213)" clip-path="url(#clip4)" />
<clipPath id="clip5"><path d="M14,15 L394,15 L394,383 L14,383 Z M25,164 C20.5817184,164 17,167.5817261 17,172 L17,224 C17,228.4182739 20.5817184,232 25,232 L176,232 C180.4182739,232 184,228.4182739 184,224 L184,172 C184,167.5817261 180.4182739,164 176,164 Z" /></clipPath>
<path d="M194,198 L194,244.7487488 C194,249.1647491 197.5839996,252.7487488 202,252.7487488 L220,252.7487488" style="fill:none;stroke:rgb(85,142,213)" clip-path="url(#clip5)" />
<clipPath id="clip6"><path d="M14,15 L394,15 L394,383 L14,383 Z M25,164 C20.5817184,164 17,167.5817261 17,172 L17,224 C17,228.4182739 20.5817184,232 25,232 L176,232 C180.4182739,232 184,228.4182739 184,224 L184,172 C184,167.5817261 180.4182739,164 176,164 Z" /></clipPath>
<path d="M194,198 L194,298.7449951 C194,303.1610107 197.5839996,306.7449951 202,306.7449951 L220,306.7449951" style="fill:none;stroke:rgb(85,142,213)" clip-path="url(#clip6)" />
<clipPath id="clip7"><path d="M14,15 L394,15 L394,383 L14,383 Z M25,164 C20.5817184,164 17,167.5817261 17,172 L17,224 C17,228.4182739 20.5817184,232 25,232 L176,232 C180.4182739,232 184,228.4182739 184,224 L184,172 C184,167.5817261 180.4182739,164 176,164 Z" /></clipPath>
<path d="M194,198 L194,352.7487488 C194,357.1647339 197.5839996,360.7487488 202,360.7487488 L220,360.7487488" style="fill:none;stroke:rgb(85,142,213)" clip-path="url(#clip7)" />
<clipPath id="clip8"><path d="M13,14 L395,14 L395,384 L13,384 L13,14 Z" /></clipPath>
<path d="M184,198 L194,198" style="fill:none;stroke:rgb(85,142,213)" clip-path="url(#clip8)" />
<clipPath id="clip9"><path d="M13,160 L189,160 L189,237 L13,237 L13,160 Z" /></clipPath>
<path d="M25,164 C20.5817184,164 17,167.5817261 17,172 L17,224 C17,228.4182739 20.5817184,232 25,232 L176,232 C180.4182739,232 184,228.4182739 184,224 L184,172 C184,167.5817261 180.4182739,164 176,164 Z" style="fill:rgb(220,230,242);stroke:none" clip-path="url(#clip9)" />
<clipPath id="clip10"><path d="M13,160 L189,160 L189,237 L13,237 L13,160 Z" /></clipPath>
<path d="M25,164 C20.5817184,164 17,167.5817261 17,172 L17,224 C17,228.4182739 20.5817184,232 25,232 L176,232 C180.4182739,232 184,228.4182739 184,224 L184,172 C184,167.5817261 180.4182739,164 176,164 Z" style="fill:none;stroke:rgb(85,142,213);stroke-width:5" clip-path="url(#clip10)" />
<clipPath id="clip11"><path d="M49,180 L153,180 L153,217 L49,217 L49,180 Z" /></clipPath>
<path d="M55.2089844,205.1914063 L55.2089844,196.6484375 C54.6074219,196.921875 53.9824219,197.1835938 53.3339844,197.4335938 C53.0371094,196.4804688 52.6777344,195.5664063 52.2558594,194.6914063 C55.3261719,193.8320313 57.8535156,192.6679688 59.8378906,191.1992188 L53.1464844,191.1992188 L53.1464844,188.8320313 L62.4042969,188.8320313 L62.4042969,186.8164063 L65.4277344,186.8164063 L65.4277344,188.8320313 L74.7089844,188.8320313 L74.7089844,191.1992188 L67.6777344,191.1992188 C69.6074219,192.6210938 72.2246094,193.6367188 75.5292969,194.2460938 C75.1855469,195.0742188 74.8417969,196.0351563 74.4980469,197.1289063 C73.8339844,196.9257813 73.2011719,196.7109375 72.5996094,196.484375 L72.5996094,205.1914063 Z M65.4277344,191.9140625 L65.4277344,194.8320313 L62.4042969,194.8320313 L62.4042969,192.0195313 C61.2089844,193.1992188 59.6972656,194.3007813 57.8691406,195.3242188 L69.9628906,195.3242188 C68.0644531,194.3476563 66.5527344,193.2109375 65.4277344,191.9140625 Z M69.5058594,197.6914063 L58.3027344,197.6914063 L58.3027344,199.1679688 L69.5058594,199.1679688 Z M69.5058594,202.8242188 L69.5058594,201.3476563 L58.3027344,201.3476563 L58.3027344,202.8242188 Z M75.1074219,209.1757813 L52.6777344,209.1757813 L52.6777344,206.4570313 L75.1074219,206.4570313 Z M77.3691406,191.2460938 L80.5097656,191.2460938 L80.5097656,186.9570313 L83.8144531,186.9570313 L83.8144531,191.2460938 L86.4628906,191.2460938 L86.4628906,193.3320313 L89.1582031,193.0976563 L88.8066406,186.8632813 L92.1816406,186.8632813 C92.1894531,188.3164063 92.2714844,190.296875 92.4277344,192.8046875 L99.7285156,192.1601563 L100.0097656,195.0898438 L92.6269531,195.7460938 C92.7441406,197.4257813 92.8847656,198.875 93.0488281,200.09375 C94.5800781,198.8203125 95.9160156,197.4335938 97.0566406,195.9335938 L99.6113281,197.9257813 C97.9316406,200.0820313 95.9980469,202.0078125 93.8105469,203.703125 C94.1386719,204.7109375 94.5117188,205.4316406 94.9296875,205.8652344 C95.3476563,206.2988281 95.7246094,206.515625 96.0605469,206.515625 C96.2167969,206.515625 96.3476563,206.4609375 96.453125,206.3515625 C96.5585938,206.2421875 96.6914063,205.890625 96.8515625,205.296875 C97.0117188,204.703125 97.1972656,203.6914063 97.4082031,202.2617188 C98.5332031,202.9804688 99.4941406,203.5117188 100.2910156,203.8554688 C99.9003906,206.0976563 99.4179688,207.6855469 98.84375,208.6191406 C98.2695313,209.5527344 97.4238281,210.0195313 96.3066406,210.0195313 C93.8691406,210.0195313 92.0878906,208.5742188 90.9628906,205.6835938 C89.5800781,206.5507813 88.1113281,207.3398438 86.5566406,208.0507813 C86.1035156,207.2539063 85.4785156,206.2929688 84.6816406,205.1679688 C86.6347656,204.3007813 88.4277344,203.34375 90.0605469,202.296875 C89.7402344,200.6015625 89.5019531,198.5117188 89.3457031,196.0273438 L85.8769531,196.3320313 L85.6894531,194.2460938 L83.8144531,194.2460938 L83.8144531,198.0429688 L86.9550781,197.6914063 C86.8457031,198.9570313 86.7988281,199.9804688 86.8144531,200.7617188 L83.8144531,201.125 L83.8144531,206.9726563 C83.8144531,207.8164063 83.6269531,208.4707031 83.2519531,208.9355469 C82.8769531,209.4003906 82.2578125,209.6601563 81.3945313,209.7148438 C80.53125,209.7695313 79.4082031,209.8007813 78.0253906,209.8085938 C77.8222656,208.7773438 77.5410156,207.7460938 77.1816406,206.7148438 C77.8847656,206.7851563 78.5292969,206.8203125 79.1152344,206.8203125 C79.6855469,206.8203125 80.0605469,206.7421875 80.2402344,206.5859375 C80.4199219,206.4296875 80.5097656,206.1367188 80.5097656,205.7070313 L80.5097656,201.546875 L77.3457031,201.9804688 L76.9707031,198.6757813 L80.5097656,198.359375 L80.5097656,194.2460938 L77.3691406,194.2460938 Z M95.2753906,187.0976563 C96.4941406,188.0039063 97.7441406,189.0351563 99.0253906,190.1914063 C98.1191406,191.0507813 97.3847656,191.7617188 96.8222656,192.3242188 C95.7753906,191.2148438 94.6035156,190.1367188 93.3066406,189.0898438 Z M101.7324219,204.2304688 L107.2636719,204.2304688 C107.3339844,203.8632813 107.3808594,203.4804688 107.4042969,203.0820313 L104.0058594,203.0820313 L104.0058594,192.9921875 C103.6699219,193.2734375 103.3261719,193.5429688 102.9746094,193.8007813 C102.7089844,192.9882813 102.2636719,192.0507813 101.6386719,190.9882813 C103.2011719,189.9726563 104.5058594,188.5820313 105.5527344,186.8164063 L108.8808594,186.8164063 C108.5839844,187.3632813 108.2753906,187.8867188 107.9550781,188.3867188 L113.0292969,188.3867188 L113.0292969,190.4140625 C114.1542969,189.3984375 115.0136719,188.1914063 115.6074219,186.7929688 L118.6777344,186.7929688 C118.4824219,187.3476563 118.2714844,187.8789063 118.0449219,188.3867188 L124.6542969,188.3867188 L124.6542969,190.5429688 L121.3730469,190.5429688 L122.0292969,191.9492188 L119.1230469,192.5351563 L122.8027344,192.5351563 L122.8027344,203.0820313 L119.7558594,203.0820313 L119.7558594,204.2304688 L124.9824219,204.2304688 L124.9824219,206.4804688 L119.7558594,206.4804688 L119.7558594,209.8789063 L116.6621094,209.8789063 L116.6621094,206.4804688 L109.9121094,206.4804688 C109.3339844,208.0585938 108.2167969,209.3007813 106.5605469,210.2070313 C105.5761719,209.5039063 104.5683594,208.8632813 103.5371094,208.2851563 C104.6621094,207.8476563 105.5488281,207.2460938 106.1972656,206.4804688 L101.7324219,206.4804688 Z M111.0136719,191.9492188 L108.1074219,192.5351563 L114.5527344,192.5351563 C113.7636719,192.0429688 112.9355469,191.5898438 112.0683594,191.1757813 C112.3496094,190.9726563 112.6152344,190.7617188 112.8652344,190.5429688 L110.3691406,190.5429688 C110.5957031,191.0195313 110.8105469,191.4882813 111.0136719,191.9492188 Z M115.2089844,192.5351563 L118.9941406,192.5351563 C118.7441406,191.8085938 118.4707031,191.1445313 118.1738281,190.5429688 L116.8496094,190.5429688 C116.3574219,191.2695313 115.8105469,191.9335938 115.2089844,192.5351563 Z M104.5097656,192.5351563 L107.9785156,192.5351563 C107.8222656,191.9960938 107.5800781,191.3320313 107.2519531,190.5429688 L106.3964844,190.5429688 C105.8027344,191.2617188 105.1738281,191.9257813 104.5097656,192.5351563 Z M119.7324219,194.4570313 L107.0761719,194.4570313 L107.0761719,195.6289063 L119.7324219,195.6289063 Z M107.0761719,198.3945313 L119.7324219,198.3945313 L119.7324219,197.2226563 L107.0761719,197.2226563 Z M119.7324219,201.1601563 L119.7324219,199.9882813 L107.0761719,199.9882813 L107.0761719,201.1601563 Z M110.3808594,204.2304688 L116.6621094,204.2304688 L116.6621094,203.0820313 L110.4628906,203.0820313 C110.4550781,203.4492188 110.4277344,203.8320313 110.3808594,204.2304688 Z M144.8457031,201.4414063 C146.7363281,203.8476563 148.3691406,206.2148438 149.7441406,208.5429688 L146.7910156,210.2070313 L145.8535156,208.6132813 C139.7050781,208.8320313 135.7207031,209.0507813 133.9003906,209.2695313 L132.7050781,206.5742188 C134.3300781,205.2148438 135.9707031,203.1210938 137.6269531,200.2929688 L132.7285156,200.2929688 L132.7285156,197.5039063 L139.5019531,197.5039063 L139.5019531,193.3320313 L133.7597656,193.3320313 L133.7597656,190.5429688 L139.5019531,190.5429688 L139.5019531,186.7929688 L142.7363281,186.7929688 L142.7363281,190.5429688 L148.6191406,190.5429688 L148.6191406,193.3320313 L142.7363281,193.3320313 L142.7363281,197.5039063 L149.6503906,197.5039063 L149.6503906,200.2929688 L141.5292969,200.2929688 C140.2792969,202.3398438 138.9003906,204.2539063 137.3925781,206.0351563 C139.4082031,205.9804688 141.6425781,205.890625 144.0957031,205.765625 C143.4316406,204.7421875 142.7910156,203.8007813 142.1738281,202.9414063 Z M129.2363281,187.2617188 C130.6738281,188.2460938 132.0566406,189.2695313 133.3847656,190.3320313 L131.2753906,192.7226563 C129.9003906,191.4882813 128.5488281,190.3867188 127.2207031,189.4179688 Z M128.4394531,193.3789063 C129.7988281,194.3164063 131.1425781,195.3632813 132.4707031,196.5195313 L130.2675781,198.9570313 C129.1425781,197.8320313 127.8535156,196.7070313 126.4003906,195.5820313 Z M129.7988281,199.7070313 C130.7050781,200.1601563 131.7285156,200.5664063 132.8691406,200.9257813 C131.8535156,203.8476563 130.9238281,206.8242188 130.0800781,209.8554688 C128.9707031,209.4335938 127.9082031,209.0664063 126.8925781,208.7539063 C127.8925781,206.0507813 128.8613281,203.0351563 129.7988281,199.7070313 Z" style="fill:rgb(55,96,146);stroke:none" clip-path="url(#clip11)" />
<clipPath id="clip12"><path d="M218,14 L322,14 L322,60 L218,60 L218,14 Z" /></clipPath>
<path d="M225,16 C222.2385712,16 220,18.2385712 220,21 L220,52 C220,54.7614288 222.2385712,57 225,57 L314,57 C316.7614136,57 319,54.7614288 319,52 L319,21 C319,18.2385712 316.7614136,16 314,16 Z" style="fill:rgb(220,230,242);stroke:none" clip-path="url(#clip12)" />
<clipPath id="clip13"><path d="M218,14 L322,14 L322,60 L218,60 L218,14 Z" /></clipPath>
<path d="M225,16 C222.2385712,16 220,18.2385712 220,21 L220,52 C220,54.7614288 222.2385712,57 225,57 L314,57 C316.7614136,57 319,54.7614288 319,52 L319,21 C319,18.2385712 316.7614136,16 314,16 Z" style="fill:none;stroke:rgb(85,142,213);stroke-width:2" clip-path="url(#clip13)" />
<clipPath id="clip14"><path d="M232,23 L308,23 L308,51 L232,51 L232,23 Z" /></clipPath>
<path d="M251.5246582,41.1254883 C251.1594238,41.5792694 250.8605957,41.9777069 250.6281738,42.3208008 C249.6099396,41.8393555 248.6747284,41.2638397 247.8225098,40.5942383 L247.8225098,41.5073242 L243.8547363,41.5073242 L243.8547363,43.2338867 L250.3459473,43.2338867 L250.3459473,44.3129883 L236.1184082,44.3129883 L236.1184082,43.2338867 L242.6096191,43.2338867 L242.6096191,41.5073242 L238.592041,41.5073242 L238.592041,40.6025391 C237.7121582,41.3385468 236.7935333,41.9777069 235.8361816,42.5200195 C235.6259003,42.2211914 235.3381348,41.8725586 234.9729004,41.4741211 C236.6773224,40.644043 238.1520996,39.5926056 239.3972168,38.3198242 L235.1555176,38.3198242 L235.1555176,37.2407227 L238.4592285,37.2407227 L238.4592285,31.6791992 L235.670166,31.6791992 L235.670166,30.6000977 L238.4592285,30.6000977 L238.4592285,28.8071289 L239.7043457,28.8071289 L239.7043457,30.6000977 L246.826416,30.6000977 L246.826416,28.8071289 L248.0715332,28.8071289 L248.0715332,30.6000977 L250.8605957,30.6000977 L250.8605957,31.6791992 L248.0715332,31.6791992 L248.0715332,37.2407227 L251.3254395,37.2407227 L251.3254395,38.3198242 L246.9592285,38.3198242 C248.2043457,39.5594025 249.7261505,40.4946289 251.5246582,41.1254883 Z M242.6096191,38.8510742 L243.8547363,38.8510742 L243.8547363,40.4614258 L247.6564941,40.4614258 C246.8651581,39.8250275 246.1429901,39.1111603 245.4899902,38.3198242 L240.9162598,38.3198242 C240.2245331,39.1056366 239.505127,39.8195038 238.7580566,40.4614258 L242.6096191,40.4614258 Z M239.7043457,37.2407227 L246.826416,37.2407227 L246.826416,36.0620117 L239.7043457,36.0620117 Z M239.7043457,35.0327148 L246.826416,35.0327148 L246.826416,33.8706055 L239.7043457,33.8706055 Z M239.7043457,32.8413086 L246.826416,32.8413086 L246.826416,31.6791992 L239.7043457,31.6791992 Z M268.9313965,40.8432617 C268.6436157,41.1310272 268.267334,41.5183868 267.8024902,42.0053711 C265.1240845,39.9412384 262.9880371,37.2960663 261.3942871,34.0698242 L261.3942871,40.644043 L265.1960449,40.644043 L265.1960449,41.8061523 L261.3942871,41.8061523 L261.3942871,45.2094727 L260.0993652,45.2094727 L260.0993652,41.8061523 L256.1647949,41.8061523 L256.1647949,40.644043 L260.0993652,40.644043 L260.0993652,34.0698242 C258.6882324,36.8810272 256.5244751,39.5926056 253.6081543,42.2045898 C253.1765137,41.7950897 252.8112793,41.4630585 252.5124512,41.2084961 C255.6612091,38.6241913 258.0158691,35.8904572 259.576416,33.0073242 L252.8776855,33.0073242 L252.8776855,31.7788086 L260.0993652,31.7788086 L260.0993652,28.7905273 L261.3942871,28.7905273 L261.3942871,31.7788086 L268.6159668,31.7788086 L268.6159668,33.0073242 L261.8674316,33.0073242 C263.6271973,36.3165741 265.9818726,38.9285431 268.9313965,40.8432617 Z M270.5666504,30.6000977 L277.6555176,30.6000977 L277.6555176,28.8237305 L278.8342285,28.8237305 L278.8342285,30.6000977 L286.0227051,30.6000977 L286.0227051,31.7124023 L279.8718262,31.7124023 C281.6205444,33.0460663 283.8312988,34.0532227 286.5041504,34.7338867 C286.2163696,35.1655273 285.961853,35.5584259 285.7404785,35.9125977 C285.1428223,35.70784 284.5673218,35.486496 284.013916,35.2485352 L284.013916,42.4536133 L282.7521973,42.4536133 L282.7521973,41.706543 L273.8039551,41.706543 L273.8039551,42.4702148 L272.5422363,42.4702148 L272.5422363,35.331543 C271.9777832,35.591629 271.3856812,35.8406525 270.7658691,36.0786133 C270.5334473,35.7355194 270.2733765,35.3813477 269.9855957,35.0161133 C272.8410645,34.11409 275.0297241,33.0128632 276.5515137,31.7124023 L270.5666504,31.7124023 Z M270.1682129,43.3500977 L286.3381348,43.3500977 L286.3381348,44.5454102 L270.1682129,44.5454102 Z M277.6555176,34.8334961 L277.6555176,31.9863281 C276.3827515,33.2148438 274.7391968,34.3022461 272.7248535,35.2485352 L284.0056152,35.2485352 C281.963623,34.379715 280.2398071,33.3033905 278.8342285,32.0195313 L278.8342285,34.8334961 Z M273.8039551,40.5610352 L282.7521973,40.5610352 L282.7521973,39.0336914 L273.8039551,39.0336914 Z M282.7521973,36.394043 L273.8039551,36.394043 L273.8039551,37.9047852 L282.7521973,37.9047852 Z M292.8210449,42.4204102 C294.5586548,41.6290741 296.1054077,40.7436523 297.4611816,39.7641602 C297.1291504,38.5688477 296.8939819,36.964035 296.7556152,34.949707 L293.5681152,35.3149414 L293.3688965,34.0864258 L296.6809082,33.7128906 C296.6034546,32.2796173 296.5287476,30.6831055 296.4567871,28.9233398 L297.8181152,28.9233398 C297.8347168,30.6333008 297.8762207,32.1800079 297.942627,33.5634766 L303.5456543,32.9243164 L303.6950684,34.1362305 L298.017334,34.800293 C298.1224976,36.4881134 298.2995605,37.8660431 298.548584,38.934082 C299.8822632,37.8383789 301.000061,36.6375275 301.9020996,35.331543 L302.9812012,36.1450195 C301.8190918,37.6446991 300.4660645,39.0060272 298.9221191,40.2290039 C299.3759155,41.5571289 299.9818726,42.5532227 300.7399902,43.2172852 C301.1605835,43.5714569 301.4981079,43.7485352 301.7526855,43.7485352 C302.0404663,43.7485352 302.2451782,43.4773712 302.3669434,42.9350586 C302.5219116,42.1381836 302.6491699,41.285965 302.7487793,40.378418 C303.2578735,40.5997772 303.684021,40.7602539 304.0270996,40.8598633 C303.8168335,42.1326447 303.6176147,43.0955353 303.4294434,43.7485352 C303.1638184,44.6450195 302.6547241,45.0932617 301.9020996,45.0932617 C301.1937866,45.0932617 300.5684204,44.8553009 300.026123,44.3793945 C299.1185913,43.6157227 298.3991699,42.497879 297.8679199,41.0258789 C296.5840454,41.9445038 295.1784668,42.7745819 293.651123,43.5161133 C293.4519043,43.2062225 293.1752319,42.8409882 292.8210449,42.4204102 Z M287.4919434,37.6889648 C288.3552246,37.5616913 289.3291626,37.4011993 290.4138184,37.2075195 L290.4138184,33.3227539 L287.7409668,33.3227539 L287.7409668,32.1606445 L290.4138184,32.1606445 L290.4138184,28.9897461 L291.6921387,28.9897461 L291.6921387,32.1606445 L294.0993652,32.1606445 L294.0993652,33.3227539 L291.6921387,33.3227539 L291.6921387,36.9667969 C292.4558105,36.8229218 293.2692871,36.6652069 294.1325684,36.4936523 C294.1436157,36.925293 294.1602173,37.340332 294.182373,37.7387695 C293.3578491,37.8937225 292.527771,38.0514374 291.6921387,38.2119141 L291.6921387,43.2172852 C291.6921387,44.3683319 291.171936,44.9549103 290.1315918,44.9770508 C289.5560913,44.9881134 288.9030762,44.9825897 288.1726074,44.9604492 C288.1283569,44.5398712 288.0508423,44.0750275 287.9401855,43.565918 C288.6817017,43.6433868 289.2683105,43.6821289 289.6999512,43.6821289 C290.1758423,43.6821289 290.4138184,43.4441681 290.4138184,42.9682617 L290.4138184,38.4775391 C289.5339355,38.6546173 288.6484985,38.8400116 287.7575684,39.0336914 Z M298.8640137,30.168457 L299.5944824,29.3383789 C300.5795288,30.0024414 301.5424194,30.6941681 302.4831543,31.4135742 L301.6364746,32.3764648 C300.6957397,31.5463867 299.7715454,30.810379 298.8640137,30.168457 Z" style="fill:rgb(23,55,94);stroke:none" clip-path="url(#clip14)" />
<clipPath id="clip15"><path d="M218,68 L395,68 L395,114 L218,114 L218,68 Z" /></clipPath>
<path d="M225,70 C222.2385712,70 220,72.2385712 220,75 L220,106 C220,108.7614288 222.2385712,111 225,111 L387,111 C389.7614136,111 392,108.7614288 392,106 L392,75 C392,72.2385712 389.7614136,70 387,70 Z" style="fill:rgb(220,230,242);stroke:none" clip-path="url(#clip15)" />
<clipPath id="clip16"><path d="M218,68 L395,68 L395,114 L218,114 L218,68 Z" /></clipPath>
<path d="M225,70 C222.2385712,70 220,72.2385712 220,75 L220,106 C220,108.7614288 222.2385712,111 225,111 L387,111 C389.7614136,111 392,108.7614288 392,106 L392,75 C392,72.2385712 389.7614136,70 387,70 Z" style="fill:none;stroke:rgb(85,142,213);stroke-width:2" clip-path="url(#clip16)" />
<clipPath id="clip17"><path d="M232,77 L381,77 L381,105 L232,105 L232,77 Z" /></clipPath>
<path d="M241.1086426,99.5705566 C239.1330566,97.4123535 238.1452637,94.8003769 238.1452637,91.7346191 C238.1452637,88.630127 239.1330566,85.9849472 241.1086426,83.7990723 L242.536377,83.7990723 C240.5718689,86.0402832 239.5895996,88.6799316 239.5895996,91.7180176 C239.5895996,94.7118301 240.56633,97.3293457 242.5197754,99.5705566 Z M251.5593262,83.8571777 C254.4369354,83.8461075 257.397522,83.6136856 260.4411621,83.1599121 L260.8894043,84.454834 C257.5912476,84.7979355 254.9128418,84.9916153 252.854248,85.0358887 L252.854248,88.9040527 L261.3044434,88.9040527 L261.3044434,90.1325684 L258.282959,90.1325684 L258.282959,98.8317871 L256.954834,98.8317871 L256.954834,90.1325684 L252.854248,90.1325684 C252.8265839,94.1169434 252.057373,97.0498886 250.5466309,98.9313965 C250.2478027,98.5993652 249.8991699,98.2562637 249.5007324,97.9020996 C250.8731232,96.2862167 251.5593262,93.7019043 251.5593262,90.1491699 Z M244.7692871,91.4606934 C245.5440216,91.2504044 246.3740997,91.0179825 247.2595215,90.7634277 L247.2595215,87.111084 L245.0515137,87.111084 L245.0515137,85.9655762 L247.2595215,85.9655762 L247.2595215,82.6784668 L248.5544434,82.6784668 L248.5544434,85.9655762 L250.6130371,85.9655762 L250.6130371,87.111084 L248.5544434,87.111084 L248.5544434,90.373291 C249.1465607,90.1962051 249.7608185,90.0052872 250.3972168,89.8005371 C250.4082794,90.3649902 250.4193573,90.8077011 250.4304199,91.1286621 C249.9268341,91.2725449 249.3015137,91.4606934 248.5544434,91.6931152 L248.5544434,96.7067871 C248.5544434,97.9131699 248.0563965,98.532959 247.0603027,98.5661621 C246.5511932,98.588295 245.953537,98.5938339 245.267334,98.5827637 C245.2009277,98.1179199 245.1289825,97.6530762 245.0515137,97.1882324 C245.7155762,97.2546387 246.2246857,97.2878418 246.5788574,97.2878418 C247.0326385,97.2878418 247.2595215,97.0166855 247.2595215,96.4743652 L247.2595215,92.1081543 C246.5677948,92.3295059 245.798584,92.5785294 244.9519043,92.8552246 Z M262.4084473,92.7058105 L269.8625488,92.7058105 L269.8625488,89.8171387 L263.0891113,89.8171387 L263.0891113,88.5554199 L269.8625488,88.5554199 L269.8625488,82.5290527 L271.2736816,82.5290527 L271.2736816,88.5554199 L278.0803223,88.5554199 L278.0803223,89.8171387 L271.2736816,89.8171387 L271.2736816,92.7058105 L278.7443848,92.7058105 L278.7443848,93.9675293 L271.2736816,93.9675293 L271.2736816,98.8317871 L269.8625488,98.8317871 L269.8625488,93.9675293 L262.4084473,93.9675293 Z M273.232666,86.7956543 C274.206604,85.8880997 275.2359009,84.7813339 276.3205566,83.4753418 L277.482666,84.4050293 C276.4091187,85.611412 275.3244629,86.7181778 274.2287598,87.7253418 Z M263.670166,84.3220215 L264.6496582,83.5085449 C265.6789551,84.4825058 266.7304077,85.5616074 267.8039551,86.7458496 L266.6584473,87.7253418 C265.5184937,86.3086777 264.5223999,85.1742325 263.670166,84.3220215 Z M286.9953613,83.7907715 L280.8278809,98.7819824 L279.3088379,98.7819824 L285.4763184,83.7907715 Z M288.7883301,84.6540527 L302.3352051,84.6540527 L302.3352051,86.0817871 L288.7883301,86.0817871 Z M287.5598145,95.5280762 L303.513916,95.5280762 L303.513916,96.9226074 L287.5598145,96.9226074 Z M306.9587402,89.8503418 L317.9987793,89.8503418 C317.9434204,91.7318497 317.8604126,93.5690918 317.7497559,95.3620605 C317.6169434,97.4317245 316.6374512,98.4610214 314.8112793,98.4499512 C313.9147949,98.4610214 312.9685059,98.4333496 311.9724121,98.3669434 C311.9060059,97.9020996 311.8285522,97.4317245 311.7399902,96.9558105 C312.5922241,97.0775528 313.5440063,97.143959 314.595459,97.1550293 C315.7022095,97.1771622 316.3109741,96.5297012 316.4216309,95.2126465 C316.5101929,94.017334 316.5765991,92.6394043 316.6208496,91.0788574 L311.5158691,91.0788574 C311.3830566,92.9271622 310.9984741,94.4157715 310.3620605,95.5446777 C309.5209351,97.0277481 308.1098022,98.1732559 306.1286621,98.9812012 C305.8408813,98.6048965 305.5254517,98.2341309 305.182373,97.8688965 C307.0195923,97.1827011 308.3422241,96.1866074 309.1501465,94.8806152 C309.7312012,93.8900528 310.065979,92.6228027 310.154541,91.0788574 L306.9587402,91.0788574 Z M313.8317871,82.9440918 L315.0270996,82.4294434 C316.2445679,85.3955917 318.3806152,87.6146622 321.4353027,89.0866699 C320.9372559,89.6068497 320.5775757,90.0274277 320.3562012,90.3483887 C317.312561,88.588623 315.1377563,86.1205215 313.8317871,82.9440918 Z M304.7009277,89.3024902 C306.980896,87.6866074 308.928772,85.4841309 310.5446777,82.6950684 L311.7233887,83.3425293 C310.0410767,86.2865372 308.0212402,88.649498 305.6638184,90.4313965 C305.4313965,90.088295 305.1104126,89.711998 304.7009277,89.3024902 Z M325.029541,99.5705566 L323.6018066,99.5705566 C325.5663452,97.334877 326.548584,94.6896973 326.548584,91.6350098 C326.548584,88.6356583 325.5718384,86.0236816 323.6184082,83.7990723 L325.029541,83.7990723 C326.9940796,85.9406738 327.9763184,88.5526505 327.9763184,91.6350098 C327.9763184,94.7505722 326.9940796,97.395752 325.029541,99.5705566 Z M340.3942871,84.2722168 L347.4831543,84.2722168 L347.4831543,82.4958496 L348.6618652,82.4958496 L348.6618652,84.2722168 L355.8503418,84.2722168 L355.8503418,85.3845215 L349.6994629,85.3845215 C351.4481812,86.7181778 353.6589355,87.7253418 356.3317871,88.4060059 C356.0440063,88.8376465 355.7894897,89.2305527 355.5681152,89.5847168 C354.970459,89.3799667 354.3949585,89.1586075 353.8415527,88.9206543 L353.8415527,96.1257324 L352.579834,96.1257324 L352.579834,95.3786621 L343.6315918,95.3786621 L343.6315918,96.142334 L342.369873,96.142334 L342.369873,89.0036621 C341.8054199,89.2637558 341.2133179,89.5127792 340.5935059,89.7507324 C340.361084,89.4076309 340.1010132,89.0534668 339.8132324,88.6882324 C342.6687012,87.7862167 344.8573608,86.6849747 346.3791504,85.3845215 L340.3942871,85.3845215 Z M339.9958496,97.0222168 L356.1657715,97.0222168 L356.1657715,98.2175293 L339.9958496,98.2175293 Z M347.4831543,88.5056152 L347.4831543,85.6584473 C346.2103882,86.8869629 344.5668335,87.9743652 342.5524902,88.9206543 L353.833252,88.9206543 C351.7912598,88.0518417 350.0674438,86.975502 348.6618652,85.6916504 L348.6618652,88.5056152 Z M343.6315918,94.2331543 L352.579834,94.2331543 L352.579834,92.7058105 L343.6315918,92.7058105 Z M352.579834,90.0661621 L343.6315918,90.0661621 L343.6315918,91.5769043 L352.579834,91.5769043 Z M362.6486816,96.0925293 C364.386322,95.3011856 365.9330139,94.4157715 367.2888184,93.4362793 C366.9567871,92.2409668 366.7215881,90.6361465 366.583252,88.6218262 L363.395752,88.9870605 L363.1965332,87.7585449 L366.5085449,87.3850098 C366.4310608,85.9517441 366.3563538,84.3552246 366.2844238,82.595459 L367.645752,82.595459 C367.6623535,84.3054199 367.7038574,85.8521347 367.7702637,87.2355957 L373.373291,86.5964355 L373.5227051,87.8083496 L367.8449707,88.4724121 C367.9501038,90.1602402 368.1271973,91.5381699 368.3762207,92.6062012 C369.7098694,91.510498 370.8277283,90.3096542 371.7297363,89.0036621 L372.8088379,89.8171387 C371.6467285,91.3168106 370.2937012,92.6781387 368.7497559,93.901123 C369.2035217,95.229248 369.8094788,96.2253418 370.567627,96.8894043 C370.9881897,97.2435684 371.3257751,97.4206543 371.5803223,97.4206543 C371.8680725,97.4206543 372.0728455,97.149498 372.1945801,96.6071777 C372.3495178,95.8103027 372.4768066,94.9580917 372.576416,94.0505371 C373.0855408,94.2718887 373.5116272,94.432373 373.8547363,94.5319824 C373.6444397,95.8047714 373.4452209,96.767662 373.2570801,97.4206543 C372.9914551,98.3171387 372.4823303,98.7653809 371.7297363,98.7653809 C371.0213928,98.7653809 370.3960876,98.5274277 369.8537598,98.0515137 C368.9461975,97.2878418 368.2268066,96.1700058 367.6955566,94.697998 C366.4117126,95.6166153 365.0061035,96.4466934 363.4787598,97.1882324 C363.279541,96.878334 363.0028381,96.5130997 362.6486816,96.0925293 Z M357.3195801,91.361084 C358.1828613,91.2338028 359.1568298,91.0733261 360.2414551,90.8796387 L360.2414551,86.994873 L357.5686035,86.994873 L357.5686035,85.8327637 L360.2414551,85.8327637 L360.2414551,82.6618652 L361.5197754,82.6618652 L361.5197754,85.8327637 L363.927002,85.8327637 L363.927002,86.994873 L361.5197754,86.994873 L361.5197754,90.638916 C362.2834473,90.4950333 363.0969238,90.3373184 363.9602051,90.1657715 C363.971283,90.5974121 363.9878845,91.0124512 364.0100098,91.4108887 C363.1854553,91.565834 362.3553772,91.7235489 361.5197754,91.8840332 L361.5197754,96.8894043 C361.5197754,98.0404434 360.9996033,98.627037 359.9592285,98.6491699 C359.3836975,98.6602402 358.7307129,98.6547012 358.0002441,98.6325684 C357.9559631,98.211998 357.8785095,97.7471542 357.7678223,97.2380371 C358.5093689,97.3155136 359.0959473,97.354248 359.5275879,97.354248 C360.0035095,97.354248 360.2414551,97.1162949 360.2414551,96.6403809 L360.2414551,92.1496582 C359.3615723,92.3267441 358.4761658,92.5121231 357.5852051,92.7058105 Z M368.6916504,83.8405762 L369.4221191,83.010498 C370.407135,83.6745605 371.3700256,84.3662949 372.310791,85.0856934 L371.4641113,86.048584 C370.5233459,85.2185059 369.5992126,84.4825058 368.6916504,83.8405762 Z" style="fill:rgb(23,55,94);stroke:none" clip-path="url(#clip17)" />
<clipPath id="clip18"><path d="M218,122 L322,122 L322,168 L218,168 L218,122 Z" /></clipPath>
<path d="M225,124 C222.2385712,124 220,126.2385712 220,129 L220,160 C220,162.7614288 222.2385712,165 225,165 L314,165 C316.7614136,165 319,162.7614288 319,160 L319,129 C319,126.2385712 316.7614136,124 314,124 Z" style="fill:rgb(220,230,242);stroke:none" clip-path="url(#clip18)" />
<clipPath id="clip19"><path d="M218,122 L322,122 L322,168 L218,168 L218,122 Z" /></clipPath>
<path d="M225,124 C222.2385712,124 220,126.2385712 220,129 L220,160 C220,162.7614288 222.2385712,165 225,165 L314,165 C316.7614136,165 319,162.7614288 319,160 L319,129 C319,126.2385712 316.7614136,124 314,124 Z" style="fill:none;stroke:rgb(85,142,213);stroke-width:2" clip-path="url(#clip19)" />
<clipPath id="clip20"><path d="M232,131 L308,131 L308,159 L232,159 L232,131 Z" /></clipPath>
<path d="M244.552002,144.5351563 C243.6555176,144.8118439 242.7424316,145.0719452 241.8127441,145.3154297 L241.8127441,147.5068359 L244.4855957,147.5068359 L244.4855957,148.6357422 L241.8127441,148.6357422 L241.8127441,151.109375 L245.083252,151.109375 L245.083252,142.2607422 L240.2687988,142.2607422 L240.2687988,141.0654297 L245.083252,141.0654297 L245.083252,139.1064453 C243.7772675,139.1783905 242.3716583,139.2447968 240.8664551,139.3056641 C240.8000488,138.9293671 240.72258,138.5364685 240.6340332,138.1269531 C244.1867676,138.0384216 247.5568848,137.8336639 250.7443848,137.5126953 L250.9768066,138.7080078 C249.6210175,138.8242188 248.0659943,138.934906 246.3117676,139.0400391 L246.3117676,141.0654297 L251.5246582,141.0654297 L251.5246582,142.2607422 L246.3117676,142.2607422 L246.3117676,151.109375 L249.5822754,151.109375 L249.5822754,148.6191406 L246.942627,148.6191406 L246.942627,147.4902344 L249.5822754,147.4902344 L249.5822754,145.2158203 L246.8928223,145.2158203 L246.8928223,144.0869141 L250.7775879,144.0869141 L250.7775879,153.1679688 L249.5822754,153.1679688 L249.5822754,152.2382813 L241.8127441,152.2382813 L241.8127441,153.2177734 L240.6340332,153.2177734 L240.6340332,144.4521484 C241.8625488,144.1533203 242.9803925,143.7936249 243.9875488,143.3730469 Z M234.9729004,145.7138672 C235.6867676,145.4095001 236.3840332,145.0968475 237.0646973,144.7758789 L237.0646973,141.0322266 L235.0891113,141.0322266 L235.0891113,139.8701172 L237.0646973,139.8701172 L237.0646973,136.8154297 L238.2766113,136.8154297 L238.2766113,139.8701172 L240.185791,139.8701172 L240.185791,141.0322266 L238.2766113,141.0322266 L238.2766113,144.1865234 C238.8742676,143.8876953 239.4608612,143.5833282 240.036377,143.2734375 C240.0695801,143.826828 240.1138458,144.2695313 240.1691895,144.6015625 C239.5383301,144.9225311 238.9074707,145.2434845 238.2766113,145.5644531 L238.2766113,151.2089844 C238.2766113,152.3378906 237.795166,152.9300079 236.8322754,152.9853516 C236.3895721,153.0074921 235.897049,153.0130157 235.3547363,153.0019531 C235.3104706,152.5703125 235.2440643,152.1110077 235.1555176,151.6240234 C235.6867676,151.6682892 236.1239471,151.6904297 236.467041,151.6904297 C236.8654785,151.6904297 237.0646973,151.4801483 237.0646973,151.0595703 L237.0646973,146.1870117 C236.4227753,146.513504 235.780838,146.8427734 235.138916,147.1748047 Z M256.5466309,151.5078125 L258.2233887,151.5078125 L258.2233887,141.2314453 L262.1413574,141.2314453 L262.1413574,139.7207031 L257.3269043,139.7207031 L257.3269043,138.5917969 L262.1413574,138.5917969 L262.1413574,136.8320313 L263.4030762,136.8320313 L263.4030762,138.5917969 L268.6325684,138.5917969 L268.6325684,139.7207031 L263.4030762,139.7207031 L263.4030762,141.2314453 L267.4206543,141.2314453 L267.4206543,151.5078125 L268.9978027,151.5078125 L268.9978027,152.6367188 L256.5466309,152.6367188 Z M252.4294434,144.9667969 C253.9125214,142.7532654 255.0635529,140.0693359 255.8825684,136.9150391 L257.111084,137.2802734 C256.668396,138.7080078 256.1869507,140.0472107 255.666748,141.2978516 L255.666748,153.1015625 L254.454834,153.1015625 L254.454834,143.8544922 C253.9789276,144.7399139 253.4753418,145.5644531 252.9440918,146.328125 C252.7891388,145.8632813 252.6175995,145.4095001 252.4294434,144.9667969 Z M259.4519043,151.5078125 L266.1921387,151.5078125 L266.1921387,149.9970703 L259.4519043,149.9970703 Z M266.1921387,142.3271484 L259.4519043,142.3271484 L259.4519043,143.8212891 L266.1921387,143.8212891 Z M259.4519043,146.3779297 L266.1921387,146.3779297 L266.1921387,144.8837891 L259.4519043,144.8837891 Z M259.4519043,148.9345703 L266.1921387,148.9345703 L266.1921387,147.4404297 L259.4519043,147.4404297 Z M270.5666504,138.5585938 L277.6555176,138.5585938 L277.6555176,136.7822266 L278.8342285,136.7822266 L278.8342285,138.5585938 L286.0227051,138.5585938 L286.0227051,139.6708984 L279.8718262,139.6708984 C281.6205444,141.0045624 283.8312988,142.0117188 286.5041504,142.6923828 C286.2163696,143.1240234 285.961853,143.516922 285.7404785,143.8710938 C285.1428223,143.6663361 284.5673218,143.4449921 284.013916,143.2070313 L284.013916,150.4121094 L282.7521973,150.4121094 L282.7521973,149.6650391 L273.8039551,149.6650391 L273.8039551,150.4287109 L272.5422363,150.4287109 L272.5422363,143.2900391 C271.9777832,143.5501251 271.3856812,143.7991486 270.7658691,144.0371094 C270.5334473,143.6940155 270.2733765,143.3398438 269.9855957,142.9746094 C272.8410645,142.0726013 275.0297241,140.9713593 276.5515137,139.6708984 L270.5666504,139.6708984 Z M270.1682129,151.3085938 L286.3381348,151.3085938 L286.3381348,152.5039063 L270.1682129,152.5039063 Z M277.6555176,142.7919922 L277.6555176,139.9448242 C276.3827515,141.1733398 274.7391968,142.2607422 272.7248535,143.2070313 L284.0056152,143.2070313 C281.963623,142.3382263 280.2398071,141.2618866 278.8342285,139.9780273 L278.8342285,142.7919922 Z M273.8039551,148.5195313 L282.7521973,148.5195313 L282.7521973,146.9921875 L273.8039551,146.9921875 Z M282.7521973,144.3525391 L273.8039551,144.3525391 L273.8039551,145.8632813 L282.7521973,145.8632813 Z M292.8210449,150.3789063 C294.5586548,149.5875702 296.1054077,148.7021484 297.4611816,147.7226563 C297.1291504,146.5273438 296.8939819,144.9225311 296.7556152,142.9082031 L293.5681152,143.2734375 L293.3688965,142.0449219 L296.6809082,141.6713867 C296.6034546,140.2381287 296.5287476,138.6416016 296.4567871,136.8818359 L297.8181152,136.8818359 C297.8347168,138.5917969 297.8762207,140.1385193 297.942627,141.5219727 L303.5456543,140.8828125 L303.6950684,142.0947266 L298.017334,142.7587891 C298.1224976,144.4466095 298.2995605,145.8245392 298.548584,146.8925781 C299.8822632,145.796875 301.000061,144.5960236 301.9020996,143.2900391 L302.9812012,144.1035156 C301.8190918,145.6031952 300.4660645,146.9645233 298.9221191,148.1875 C299.3759155,149.515625 299.9818726,150.5117188 300.7399902,151.1757813 C301.1605835,151.529953 301.4981079,151.7070313 301.7526855,151.7070313 C302.0404663,151.7070313 302.2451782,151.4358673 302.3669434,150.8935547 C302.5219116,150.0966797 302.6491699,149.2444611 302.7487793,148.3369141 C303.2578735,148.5582733 303.684021,148.71875 304.0270996,148.8183594 C303.8168335,150.0911407 303.6176147,151.0540314 303.4294434,151.7070313 C303.1638184,152.6035156 302.6547241,153.0517578 301.9020996,153.0517578 C301.1937866,153.0517578 300.5684204,152.813797 300.026123,152.3378906 C299.1185913,151.5742188 298.3991699,150.4563751 297.8679199,148.984375 C296.5840454,149.9029999 295.1784668,150.733078 293.651123,151.4746094 C293.4519043,151.1647186 293.1752319,150.7994843 292.8210449,150.3789063 Z M287.4919434,145.6474609 C288.3552246,145.5201874 289.3291626,145.3596954 290.4138184,145.1660156 L290.4138184,141.28125 L287.7409668,141.28125 L287.7409668,140.1191406 L290.4138184,140.1191406 L290.4138184,136.9482422 L291.6921387,136.9482422 L291.6921387,140.1191406 L294.0993652,140.1191406 L294.0993652,141.28125 L291.6921387,141.28125 L291.6921387,144.925293 C292.4558105,144.7814178 293.2692871,144.623703 294.1325684,144.4521484 C294.1436157,144.8837891 294.1602173,145.2988281 294.182373,145.6972656 C293.3578491,145.8522186 292.527771,146.0099335 291.6921387,146.1704102 L291.6921387,151.1757813 C291.6921387,152.326828 291.171936,152.9134064 290.1315918,152.9355469 C289.5560913,152.9466095 288.9030762,152.9410858 288.1726074,152.9189453 C288.1283569,152.4983673 288.0508423,152.0335236 287.9401855,151.5244141 C288.6817017,151.6018829 289.2683105,151.640625 289.6999512,151.640625 C290.1758423,151.640625 290.4138184,151.4026642 290.4138184,150.9267578 L290.4138184,146.4360352 C289.5339355,146.6131134 288.6484985,146.7985077 287.7575684,146.9921875 Z M298.8640137,138.1269531 L299.5944824,137.296875 C300.5795288,137.9609375 301.5424194,138.6526794 302.4831543,139.3720703 L301.6364746,140.3349609 C300.6957397,139.5048828 299.7715454,138.7688904 298.8640137,138.1269531 Z" style="fill:rgb(23,55,94);stroke:none" clip-path="url(#clip20)" />
<clipPath id="clip21"><path d="M218,176 L357,176 L357,222 L218,222 L218,176 Z" /></clipPath>
<path d="M225,178 C222.2385712,178 220,180.2385712 220,183 L220,214 C220,216.7614288 222.2385712,219 225,219 L349,219 C351.7614136,219 354,216.7614288 354,214 L354,183 C354,180.2385712 351.7614136,178 349,178 Z" style="fill:rgb(220,230,242);stroke:none" clip-path="url(#clip21)" />
<clipPath id="clip22"><path d="M218,176 L357,176 L357,222 L218,222 L218,176 Z" /></clipPath>
<path d="M225,178 C222.2385712,178 220,180.2385712 220,183 L220,214 C220,216.7614288 222.2385712,219 225,219 L349,219 C351.7614136,219 354,216.7614288 354,214 L354,183 C354,180.2385712 351.7614136,178 349,178 Z" style="fill:none;stroke:rgb(85,142,213);stroke-width:2" clip-path="url(#clip22)" />
<clipPath id="clip23"><path d="M232,185 L343,185 L343,213 L232,213 L232,185 Z" /></clipPath>
<path d="M235.3400879,199.6889648 L242.8771973,199.6889648 C242.700119,199.2794647 242.4787598,198.8035431 242.2131348,198.2612305 L243.3918457,197.8129883 C243.7017365,198.4881134 243.9784393,199.1134491 244.2219238,199.6889648 L251.1281738,199.6889648 L251.1281738,200.8510742 L248.239502,200.8510742 C247.3983612,202.1681366 246.2362518,203.2970428 244.7531738,204.237793 C246.6236115,204.9461212 248.8869629,205.410965 251.5432129,205.6323242 C251.2554474,206.1082306 250.9898224,206.5620117 250.7463379,206.9936523 C247.8244629,206.6062775 245.3618927,205.942215 243.3586426,205.0014648 C241.3000488,206.0307617 238.7544708,206.7667694 235.7219238,207.2094727 C235.489502,206.777832 235.2349396,206.3406525 234.958252,205.8979492 C237.7362518,205.6101837 240.0825958,205.07341 241.9973145,204.2875977 C240.425705,203.3579102 239.208252,202.2124023 238.3449707,200.8510742 L235.3400879,200.8510742 Z M244.5871582,190.7573242 L245.8156738,190.7573242 L245.8156738,192.1352539 L250.9123535,192.1352539 L250.9123535,193.1977539 L245.8156738,193.1977539 L245.8156738,194.4760742 L250.6467285,194.4760742 L250.6467285,195.5385742 L245.8156738,195.5385742 L245.8156738,196.8334961 L251.2277832,196.8334961 L251.2277832,197.8959961 L245.8156738,197.8959961 L245.8156738,198.8256836 L244.5871582,198.8256836 Z M235.3234863,196.8334961 L240.6525879,196.8334961 L240.6525879,195.5385742 L235.904541,195.5385742 L235.904541,194.4760742 L240.6525879,194.4760742 L240.6525879,193.1977539 L235.6057129,193.1977539 L235.6057129,192.1352539 L240.6525879,192.1352539 L240.6525879,190.7573242 L241.8811035,190.7573242 L241.8811035,198.8256836 L240.6525879,198.8256836 L240.6525879,197.8959961 L235.3234863,197.8959961 Z M246.6789551,200.8510742 L239.8723145,200.8510742 C240.7466583,201.9689178 241.9198456,202.8986053 243.3918457,203.6401367 C244.786377,202.8875275 245.8820801,201.95784 246.6789551,200.8510742 Z M257.8103027,193.0649414 L262.657959,193.0649414 L262.657959,190.7739258 L263.9528809,190.7739258 L263.9528809,193.0649414 L268.6345215,193.0649414 L268.4685059,196.2524414 C268.1032715,196.2081757 267.6882324,196.1804962 267.2233887,196.1694336 L267.3562012,194.2270508 L263.9528809,194.2270508 L263.9528809,197.3149414 L267.6218262,197.3149414 L267.6218262,198.4272461 C267.0463257,200.4194336 266.0419312,202.1487579 264.6086426,203.6152344 C265.8150024,204.5559845 267.322998,205.2892303 269.1325684,205.8149414 C268.6123657,206.3351288 268.236084,206.7501678 268.0036621,207.0600586 C266.2549438,206.401535 264.7857056,205.560379 263.5959473,204.5366211 C262.317627,205.5991211 260.7709351,206.5011444 258.9558105,207.2426758 C258.7455444,206.8995819 258.4411621,206.5232697 258.0427246,206.1137695 C259.8688965,205.4331055 261.4072876,204.6030273 262.657959,203.6235352 C261.3574829,202.2013397 260.4997559,200.4858398 260.0847168,198.4770508 L259.1052246,198.4770508 C259.116272,202.1958008 258.1699829,205.0844727 256.2663574,207.1430664 C255.9675293,206.7446289 255.6687012,206.3904572 255.369873,206.0805664 C256.9968262,204.3318634 257.8103027,201.8527069 257.8103027,198.6430664 Z M266.2438965,198.4770508 L261.3215332,198.4770508 C261.7310181,200.1538086 262.5029907,201.5787811 263.6374512,202.7519531 C264.8770142,201.5289764 265.7458496,200.1040039 266.2438965,198.4770508 Z M259.1052246,197.3149414 L262.657959,197.3149414 L262.657959,194.2270508 L259.1052246,194.2270508 Z M252.9294434,206.512207 C253.5713654,204.6085663 254.1413574,202.4669647 254.6394043,200.0874023 C255.1263885,200.2976837 255.5746307,200.4692383 255.9841309,200.6020508 C255.2979279,203.2915039 254.7666779,205.410965 254.3903809,206.9604492 Z M253.1120605,191.9360352 L253.9753418,191.0561523 C254.7058105,191.6095428 255.6576385,192.3898163 256.8308105,193.3969727 C256.4545288,193.762207 256.1224976,194.0886993 255.8347168,194.3764648 C254.6947479,193.3029022 253.7871857,192.4894257 253.1120605,191.9360352 Z M252.4645996,196.269043 L253.3112793,195.3227539 C254.2631073,195.9757538 255.21492,196.684082 256.166748,197.4477539 C255.8015137,197.8351288 255.480545,198.1948242 255.2038574,198.5268555 C254.1192169,197.5639648 253.206131,196.8113556 252.4645996,196.269043 Z M270.2365723,199.7719727 L272.6188965,199.7719727 C272.6410522,199.4288788 272.6687012,198.4936523 272.7019043,196.9663086 L270.3527832,196.9663086 L270.3527832,195.7875977 L272.7185059,195.7875977 C272.7351074,194.9907227 272.7461548,194.0776367 272.751709,193.0483398 L270.286377,193.0483398 L270.286377,191.8696289 L278.255127,191.8696289 C278.2219238,197.6469727 278.1555176,201.7198944 278.0559082,204.0883789 C277.989502,205.7263947 277.2479858,206.5509491 275.8312988,206.5620117 C275.1340332,206.5620117 274.3703613,206.5398712 273.5402832,206.4956055 C273.473877,206.0307617 273.3798218,205.5769806 273.2580566,205.1342773 C274.2209473,205.2560272 275.0067749,205.3168945 275.6154785,205.3168945 C276.3569946,205.3058319 276.749939,204.8354492 276.7941895,203.9057617 C276.8329468,203.0480194 276.8633423,202.0629883 276.885498,200.9506836 L273.7727051,200.9506836 C273.4351196,203.6235352 272.472229,205.6987305 270.8840332,207.1762695 C270.6516113,206.8331757 270.3638306,206.4624023 270.020752,206.0639648 C271.3433228,204.879715 272.1679077,203.175293 272.4943848,200.9506836 L270.2365723,200.9506836 Z M286.3234863,201.6147461 C286.3234863,203.6678009 285.427002,204.7220001 283.6340332,204.7773438 C283.0419312,204.7773438 282.4663696,204.7358398 281.9074707,204.652832 C281.8632202,204.2543945 281.7802124,203.745285 281.6584473,203.1254883 C282.3446655,203.3136444 282.9838257,203.4077148 283.5759277,203.4077148 C284.500061,203.3523712 284.9621582,202.7491913 284.9621582,201.5981445 C284.9511108,200.3364258 284.1652832,199.0636444 282.6047363,197.7797852 C283.4126587,195.9757538 284.0822754,194.3764648 284.6135254,192.9819336 L281.442627,192.9819336 L281.442627,207.1762695 L280.1809082,207.1762695 L280.1809082,191.7866211 L285.9914551,191.7866211 L285.9914551,193.1479492 C285.2167358,195.0183868 284.5858765,196.4627228 284.098877,197.480957 C285.5819702,198.7758789 286.3234863,200.1538086 286.3234863,201.6147461 Z M276.9519043,196.9663086 L273.9470215,196.9663086 C273.9359741,197.6967773 273.9110718,198.6320038 273.8723145,199.7719727 L276.9104004,199.7719727 C276.927002,198.9086914 276.9408569,197.973465 276.9519043,196.9663086 Z M276.9768066,193.0483398 L273.9968262,193.0483398 C273.991272,194.0665741 273.9802246,194.97966 273.963623,195.7875977 L276.9602051,195.7875977 C276.9657593,194.9243164 276.9712524,194.0112305 276.9768066,193.0483398 Z M303.9958496,205.7817383 C303.6416626,206.2576447 303.3705444,206.7280273 303.182373,207.1928711 C299.6738892,206.6173553 297.1836548,205.1232147 295.7116699,202.7104492 C294.7045288,204.9129181 292.2197876,206.4291992 288.2575684,207.2592773 C288.0915527,206.8829803 287.8480835,206.4624023 287.5270996,205.9975586 C291.2015991,205.4331055 293.5036621,204.2488556 294.4333496,202.4448242 L288.0251465,202.4448242 L288.0251465,201.2993164 L294.947998,201.2993164 C295.0808105,200.934082 295.1914673,200.5411835 295.2800293,200.1206055 L296.1931152,200.1206055 C295.9828491,199.7775116 295.7061157,199.4399414 295.3630371,199.1079102 C296.9567871,197.8019257 297.7370605,195.8152618 297.7038574,193.1479492 L296.126709,193.1479492 L296.126709,192.019043 L302.9499512,192.019043 C302.8613892,194.4428711 302.7894897,196.1804962 302.7341309,197.2319336 C302.6898804,198.9363556 301.9538574,199.7719727 300.526123,199.7387695 C300.0502319,199.7387695 299.4193726,199.722168 298.6335449,199.6889648 C298.5560913,199.080246 298.4785767,198.6209259 298.401123,198.3110352 C299.1758423,198.432785 299.8012085,198.4936523 300.2770996,198.4936523 C301.0739746,198.5600586 301.4834595,198.0509491 301.5056152,196.9663086 C301.5498657,196.3354492 301.6107788,195.0626678 301.6882324,193.1479492 L298.8991699,193.1479492 C298.8881226,196.3243866 297.9971313,198.6486053 296.2263184,200.1206055 L296.6413574,200.1206055 C296.541748,200.5411835 296.4310913,200.934082 296.3093262,201.2993164 L303.5310059,201.2993164 L303.5310059,202.4448242 L296.9069824,202.4448242 C298.4453735,204.4591522 300.8083496,205.5714569 303.9958496,205.7817383 Z M288.1911621,197.6967773 L291.3288574,197.6967773 L291.3288574,196.152832 L288.7722168,196.152832 L288.7722168,195.090332 L291.3288574,195.090332 L291.3288574,193.5463867 L288.3571777,193.5463867 L288.3571777,192.4838867 L291.3288574,192.4838867 L291.3288574,190.9731445 L292.557373,190.9731445 L292.557373,192.4838867 L295.4626465,192.4838867 L295.4626465,193.5463867 L292.557373,193.5463867 L292.557373,195.090332 L295.1638184,195.090332 L295.1638184,196.152832 L292.557373,196.152832 L292.557373,197.6967773 L295.6286621,197.6967773 L295.6286621,198.7592773 L292.557373,198.7592773 L292.557373,200.3696289 L291.3288574,200.3696289 L291.3288574,198.7592773 L288.1911621,198.7592773 Z M305.5812988,192.5170898 L312.670166,192.5170898 L312.670166,190.7407227 L313.848877,190.7407227 L313.848877,192.5170898 L321.0373535,192.5170898 L321.0373535,193.6293945 L314.8864746,193.6293945 C316.6351929,194.9630585 318.8459473,195.9702148 321.5187988,196.6508789 C321.2310181,197.0825195 320.9765015,197.4754181 320.755127,197.8295898 C320.1574707,197.6248322 319.5819702,197.4034882 319.0285645,197.1655273 L319.0285645,204.3706055 L317.7668457,204.3706055 L317.7668457,203.6235352 L308.8186035,203.6235352 L308.8186035,204.387207 L307.5568848,204.387207 L307.5568848,197.2485352 C306.9924316,197.5086212 306.4003296,197.7576447 305.7805176,197.9956055 C305.5480957,197.6525116 305.2880249,197.2983398 305.0002441,196.9331055 C307.8557129,196.0310822 310.0443726,194.9298553 311.5661621,193.6293945 L305.5812988,193.6293945 Z M305.1828613,205.2670898 L321.3527832,205.2670898 L321.3527832,206.4624023 L305.1828613,206.4624023 Z M312.670166,196.7504883 L312.670166,193.9033203 C311.3973999,195.1318359 309.7538452,196.2192383 307.739502,197.1655273 L319.0202637,197.1655273 C316.9782715,196.2967072 315.2544556,195.2203827 313.848877,193.9365234 L313.848877,196.7504883 Z M308.8186035,202.4780273 L317.7668457,202.4780273 L317.7668457,200.9506836 L308.8186035,200.9506836 Z M317.7668457,198.3110352 L308.8186035,198.3110352 L308.8186035,199.8217773 L317.7668457,199.8217773 Z M327.8356934,204.3374023 C329.5733032,203.5460663 331.1200562,202.6606445 332.4758301,201.6811523 C332.1437988,200.4858398 331.9086304,198.8810272 331.7702637,196.8666992 L328.5827637,197.2319336 L328.3835449,196.003418 L331.6955566,195.6298828 C331.618103,194.1966095 331.543396,192.6000977 331.4714355,190.840332 L332.8327637,190.840332 C332.8493652,192.550293 332.8908691,194.0970001 332.9572754,195.4804688 L338.5603027,194.8413086 L338.7097168,196.0532227 L333.0319824,196.7172852 C333.137146,198.4051056 333.314209,199.7830353 333.5632324,200.8510742 C334.8969116,199.7553711 336.0147095,198.5545197 336.916748,197.2485352 L337.9958496,198.0620117 C336.8337402,199.5616913 335.4807129,200.9230194 333.9367676,202.1459961 C334.390564,203.4741211 334.996521,204.4702148 335.7546387,205.1342773 C336.1752319,205.4884491 336.5127563,205.6655273 336.767334,205.6655273 C337.0551147,205.6655273 337.2598267,205.3943634 337.3815918,204.8520508 C337.5365601,204.0551758 337.6638184,203.2029572 337.7634277,202.2954102 C338.272522,202.5167694 338.6986694,202.6772461 339.041748,202.7768555 C338.8314819,204.0496368 338.6322632,205.0125275 338.4440918,205.6655273 C338.1784668,206.5620117 337.6693726,207.0102539 336.916748,207.0102539 C336.2084351,207.0102539 335.5830688,206.7722931 335.0407715,206.2963867 C334.1332397,205.5327148 333.4138184,204.4148712 332.8825684,202.9428711 C331.5986938,203.861496 330.1931152,204.6915741 328.6657715,205.4331055 C328.4665527,205.1232147 328.1898804,204.7579803 327.8356934,204.3374023 Z M322.5065918,199.605957 C323.369873,199.4786835 324.343811,199.3181915 325.4284668,199.1245117 L325.4284668,195.2397461 L322.7556152,195.2397461 L322.7556152,194.0776367 L325.4284668,194.0776367 L325.4284668,190.9067383 L326.7067871,190.9067383 L326.7067871,194.0776367 L329.1140137,194.0776367 L329.1140137,195.2397461 L326.7067871,195.2397461 L326.7067871,198.8837891 C327.470459,198.7399139 328.2839355,198.5821991 329.1472168,198.4106445 C329.1582642,198.8422852 329.1748657,199.2573242 329.1970215,199.6557617 C328.3724976,199.8107147 327.5424194,199.9684296 326.7067871,200.1289063 L326.7067871,205.1342773 C326.7067871,206.2853241 326.1865845,206.8719025 325.1462402,206.894043 C324.5707397,206.9051056 323.9177246,206.8995819 323.1872559,206.8774414 C323.1430054,206.4568634 323.0654907,205.9920197 322.954834,205.4829102 C323.6963501,205.560379 324.282959,205.5991211 324.7145996,205.5991211 C325.1904907,205.5991211 325.4284668,205.3611603 325.4284668,204.8852539 L325.4284668,200.3945313 C324.548584,200.5716095 323.663147,200.7570038 322.7722168,200.9506836 Z M333.8786621,192.0854492 L334.6091309,191.2553711 C335.5941772,191.9194336 336.5570679,192.6111603 337.4978027,193.3305664 L336.651123,194.293457 C335.7103882,193.4633789 334.7861938,192.7273712 333.8786621,192.0854492 Z" style="fill:rgb(23,55,94);stroke:none" clip-path="url(#clip23)" />
<clipPath id="clip24"><path d="M218,230 L322,230 L322,276 L218,276 L218,230 Z" /></clipPath>
<path d="M225,232 C222.2385712,232 220,234.2385712 220,237 L220,268 C220,270.7614136 222.2385712,273 225,273 L314,273 C316.7614136,273 319,270.7614136 319,268 L319,237 C319,234.2385712 316.7614136,232 314,232 Z" style="fill:rgb(220,230,242);stroke:none" clip-path="url(#clip24)" />
<clipPath id="clip25"><path d="M218,230 L322,230 L322,276 L218,276 L218,230 Z" /></clipPath>
<path d="M225,232 C222.2385712,232 220,234.2385712 220,237 L220,268 C220,270.7614136 222.2385712,273 225,273 L314,273 C316.7614136,273 319,270.7614136 319,268 L319,237 C319,234.2385712 316.7614136,232 314,232 Z" style="fill:none;stroke:rgb(85,142,213);stroke-width:2" clip-path="url(#clip25)" />
<clipPath id="clip26"><path d="M232,239 L308,239 L308,267 L232,267 L232,239 Z" /></clipPath>
<path d="M237.1809082,252.1450195 L248.2209473,252.1450195 C248.1656036,254.026535 248.0825958,255.8637695 247.9719238,257.6567383 C247.8391113,259.7264099 246.8596191,260.7557068 245.0334473,260.7446289 C244.1369629,260.7557068 243.1906738,260.7280273 242.1945801,260.6616211 C242.1281738,260.1967773 242.050705,259.7264099 241.9621582,259.2504883 C242.8143768,259.3722229 243.7661896,259.4386292 244.817627,259.449707 C245.9243927,259.4718323 246.5331268,258.8243713 246.6437988,257.5073242 C246.7323456,256.3120117 246.7987518,254.934082 246.8430176,253.3735352 L241.7380371,253.3735352 C241.6052246,255.2218475 241.2206268,256.7104492 240.5842285,257.8393555 C239.7430878,259.3224182 238.331955,260.467926 236.3508301,261.2758789 C236.0630646,260.8995667 235.7476349,260.5288086 235.404541,260.1635742 C237.2417755,259.4773865 238.5643768,258.4812927 239.3723145,257.175293 C239.9533691,256.1847229 240.2881622,254.9174805 240.376709,253.3735352 L237.1809082,253.3735352 Z M244.0539551,245.2387695 L245.2492676,244.7241211 C246.4667206,247.6902771 248.6027832,249.9093475 251.6574707,251.3813477 C251.1594238,251.901535 250.7997284,252.3220978 250.5783691,252.6430664 C247.5347443,250.8833008 245.3599396,248.4152069 244.0539551,245.2387695 Z M234.9230957,251.597168 C237.2030487,249.9812927 239.1509552,247.7788086 240.7668457,244.9897461 L241.9455566,245.637207 C240.2632599,248.5812225 238.2434082,250.9441681 235.8859863,252.7260742 C235.6535645,252.3829803 235.3325958,252.0066681 234.9230957,251.597168 Z M257.8083496,253.2407227 L261.5686035,253.2407227 C261.701416,252.2058868 261.7705688,250.7947693 261.776123,249.0073242 L258.7878418,249.0073242 L258.7878418,247.8452148 L261.7844238,247.8452148 C261.8010254,246.7218475 261.8093262,245.7423553 261.8093262,244.9067383 L263.104248,244.9067383 C263.104248,245.8973083 263.1015015,246.8768005 263.0959473,247.8452148 L267.1882324,247.8452148 L267.1882324,253.2407227 L268.8649902,253.2407227 L268.8649902,254.402832 L263.2702637,254.402832 C264.1999512,256.8819885 265.9984741,258.6473083 268.6657715,259.6987305 C268.2783813,260.0860901 267.8910522,260.5177307 267.5036621,260.9936523 C264.963623,259.5991211 263.2564087,257.6982422 262.3820801,255.2910156 C261.6350098,257.5433044 259.9555054,259.5161133 257.3435059,261.2094727 C257.0114746,260.7889099 256.6849976,260.4015198 256.3640137,260.0473633 C259.031311,258.459137 260.6859741,256.5776367 261.3278809,254.402832 L257.8083496,254.402832 Z M252.5290527,257.1420898 C253.3148651,256.9428711 254.1172638,256.7353516 254.9362793,256.5195313 L254.9362793,250.2026367 L252.744873,250.2026367 L252.744873,249.0239258 L254.9362793,249.0239258 L254.9362793,244.9233398 L256.1813965,244.9233398 L256.1813965,249.0239258 L258.3894043,249.0239258 L258.3894043,250.2026367 L256.1813965,250.2026367 L256.1813965,256.1875 C256.9450684,255.9827423 257.7197876,255.7696991 258.5056152,255.5483398 C258.527771,256.0242615 258.5554199,256.4559021 258.588623,256.8432617 C256.7734985,257.3302307 254.8809357,257.8725586 252.9108887,258.4702148 Z M262.880127,253.2407227 L265.9099121,253.2407227 L265.9099121,249.0073242 L263.0876465,249.0073242 C263.0599976,250.7781677 262.9907837,252.1892853 262.880127,253.2407227 Z M270.6164551,246.5668945 L277.7053223,246.5668945 L277.7053223,244.7905273 L278.8840332,244.7905273 L278.8840332,246.5668945 L286.0725098,246.5668945 L286.0725098,247.6791992 L279.9216309,247.6791992 C281.6703491,249.0128632 283.8811035,250.0200195 286.5539551,250.7006836 C286.2661743,251.1323242 286.0116577,251.5252228 285.7902832,251.8793945 C285.192627,251.6746368 284.6171265,251.4532928 284.0637207,251.215332 L284.0637207,258.4204102 L282.802002,258.4204102 L282.802002,257.6733398 L273.8537598,257.6733398 L273.8537598,258.4370117 L272.592041,258.4370117 L272.592041,251.2983398 C272.0275879,251.5584259 271.4354858,251.8074493 270.8156738,252.0454102 C270.583252,251.7023163 270.3231812,251.3481445 270.0354004,250.9829102 C272.8908691,250.0809021 275.0795288,248.97966 276.6013184,247.6791992 L270.6164551,247.6791992 Z M270.2180176,259.3168945 L286.3879395,259.3168945 L286.3879395,260.512207 L270.2180176,260.512207 Z M277.7053223,250.800293 L277.7053223,247.953125 C276.4325562,249.1816406 274.7890015,250.269043 272.7746582,251.215332 L284.0554199,251.215332 C282.0134277,250.3465271 280.2896118,249.2701874 278.8840332,247.9863281 L278.8840332,250.800293 Z M273.8537598,256.527832 L282.802002,256.527832 L282.802002,255.0004883 L273.8537598,255.0004883 Z M282.802002,252.3608398 L273.8537598,252.3608398 L273.8537598,253.871582 L282.802002,253.871582 Z M292.8708496,258.387207 C294.6084595,257.5958557 296.1552124,256.7104492 297.5109863,255.730957 C297.1789551,254.5356445 296.9437866,252.9308319 296.8054199,250.9165039 L293.6179199,251.2817383 L293.4187012,250.0532227 L296.7307129,249.6796875 C296.6532593,248.2464294 296.5785522,246.6499023 296.5065918,244.8901367 L297.8679199,244.8901367 C297.8845215,246.6000977 297.9260254,248.1468201 297.9924316,249.5302734 L303.595459,248.8911133 L303.744873,250.1030273 L298.0671387,250.7670898 C298.1723022,252.4549103 298.3493652,253.83284 298.5983887,254.9008789 C299.9320679,253.8051758 301.0498657,252.6043243 301.9519043,251.2983398 L303.0310059,252.1118164 C301.8688965,253.611496 300.5158691,254.9728241 298.9719238,256.1958008 C299.4257202,257.5239258 300.0316772,258.5200195 300.7897949,259.184082 C301.2103882,259.5382385 301.5479126,259.715332 301.8024902,259.715332 C302.090271,259.715332 302.2949829,259.4441833 302.416748,258.9018555 C302.5717163,258.1049805 302.6989746,257.2527771 302.798584,256.3452148 C303.3076782,256.5665588 303.7338257,256.7270508 304.0769043,256.8266602 C303.8666382,258.0994568 303.6674194,259.0623474 303.479248,259.715332 C303.213623,260.6118164 302.7045288,261.0600586 301.9519043,261.0600586 C301.2435913,261.0600586 300.6182251,260.822113 300.0759277,260.3461914 C299.168396,259.5825195 298.4489746,258.4646912 297.9177246,256.9926758 C296.6338501,257.9112854 295.2282715,258.7413635 293.7009277,259.4829102 C293.501709,259.1730042 293.2250366,258.8077698 292.8708496,258.387207 Z M287.541748,253.6557617 C288.4050293,253.5284882 289.3789673,253.3679962 290.463623,253.1743164 L290.463623,249.2895508 L287.7907715,249.2895508 L287.7907715,248.1274414 L290.463623,248.1274414 L290.463623,244.956543 L291.7419434,244.956543 L291.7419434,248.1274414 L294.1491699,248.1274414 L294.1491699,249.2895508 L291.7419434,249.2895508 L291.7419434,252.9335938 C292.5056152,252.7897186 293.3190918,252.6320038 294.182373,252.4604492 C294.1934204,252.8920898 294.210022,253.3071289 294.2321777,253.7055664 C293.4076538,253.8605194 292.5775757,254.0182343 291.7419434,254.1787109 L291.7419434,259.184082 C291.7419434,260.3351135 291.2217407,260.9217224 290.1813965,260.9438477 C289.605896,260.9549255 288.9528809,260.9493713 288.2224121,260.9272461 C288.1781616,260.5066833 288.100647,260.0418396 287.9899902,259.5327148 C288.7315063,259.610199 289.3181152,259.6489258 289.7497559,259.6489258 C290.225647,259.6489258 290.463623,259.4109802 290.463623,258.9350586 L290.463623,254.4443359 C289.5837402,254.6214142 288.6983032,254.8068085 287.807373,255.0004883 Z M298.9138184,246.1352539 L299.6442871,245.3051758 C300.6293335,245.9692383 301.5922241,246.6609802 302.532959,247.3803711 L301.6862793,248.3432617 C300.7455444,247.5131836 299.8213501,246.7771912 298.9138184,246.1352539 Z" style="fill:rgb(23,55,94);stroke:none" clip-path="url(#clip26)" />
<clipPath id="clip27"><path d="M218,284 L321,284 L321,330 L218,330 L218,284 Z" /></clipPath>
<path d="M225,286 C222.2385712,286 220,288.2385864 220,291 L220,322 C220,324.7614136 222.2385712,327 225,327 L313,327 C315.7614136,327 318,324.7614136 318,322 L318,291 C318,288.2385864 315.7614136,286 313,286 Z" style="fill:rgb(220,230,242);stroke:none" clip-path="url(#clip27)" />
<clipPath id="clip28"><path d="M218,284 L321,284 L321,330 L218,330 L218,284 Z" /></clipPath>
<path d="M225,286 C222.2385712,286 220,288.2385864 220,291 L220,322 C220,324.7614136 222.2385712,327 225,327 L313,327 C315.7614136,327 318,324.7614136 318,322 L318,291 C318,288.2385864 315.7614136,286 313,286 Z" style="fill:none;stroke:rgb(85,142,213);stroke-width:2" clip-path="url(#clip28)" />
<clipPath id="clip29"><path d="M232,293 L307,293 L307,321 L232,321 L232,293 Z" /></clipPath>
<path d="M234.904541,300.890625 L239.3039551,300.890625 L239.3039551,312.6943359 L238.1086426,312.6943359 L238.1086426,311.5322266 L236.0998535,311.5322266 L236.0998535,312.9599609 L234.904541,312.9599609 Z M241.6447754,305.0576172 L248.3518066,305.0576172 L248.3518066,306.2197266 L241.6447754,306.2197266 Z M246.0275879,298.9482422 L245.7453613,299.3964844 C247.0513458,301.8092346 248.6672363,303.4970703 250.5930176,304.4599609 C250.272049,304.8473206 249.9676971,305.2347107 249.6799316,305.6220703 C247.9312286,304.5042419 246.3872833,302.7998047 245.0480957,300.5087891 C243.9634552,302.4898987 242.3973846,304.2220154 240.3498535,305.7050781 C240.0731659,305.3287659 239.7854004,304.9801331 239.4865723,304.6591797 C241.7333221,303.1761169 243.3934784,301.2724609 244.467041,298.9482422 Z M240.9973145,308.3945313 L248.8498535,308.3945313 L248.8498535,315.2675781 L247.5881348,315.2675781 L247.5881348,314.2714844 L242.2590332,314.2714844 L242.2590332,315.2675781 L240.9973145,315.2675781 Z M238.1086426,310.3867188 L238.1086426,302.0361328 L236.0998535,302.0361328 L236.0998535,310.3867188 Z M247.5881348,313.109375 L247.5881348,309.5566406 L242.2590332,309.5566406 L242.2590332,313.109375 Z M259.5827637,306.1865234 L260.8444824,306.1865234 L260.8444824,307.7802734 L266.057373,307.7802734 L266.057373,311.8642578 C266.057373,313.1923828 265.4154663,313.8564453 264.1315918,313.8564453 C263.7553101,313.8564453 263.0967407,313.8509216 262.1560059,313.8398438 C262.100647,313.419281 262.0287476,312.9765625 261.9401855,312.5117188 C262.781311,312.6002502 263.4398804,312.6445313 263.9157715,312.6445313 C264.5023804,312.6445313 264.7956543,312.3346252 264.7956543,311.7148438 L264.7956543,308.9423828 L260.8444824,308.9423828 L260.8444824,315.1679688 L259.5827637,315.1679688 L259.5827637,308.9423828 L255.7644043,308.9423828 L255.7644043,313.7568359 L254.5026855,313.7568359 L254.5026855,309.315918 C253.8496857,309.9024963 253.1634979,310.4586487 252.4440918,310.984375 C252.1563263,310.5638123 251.8574982,310.1985779 251.5476074,309.8886719 C253.3737793,308.6269531 254.9343262,307.2324219 256.229248,305.7050781 L251.829834,305.7050781 L251.829834,304.5429688 L257.1506348,304.5429688 C257.4992676,304.0670471 257.822998,303.5800781 258.1218262,303.0820313 L259.532959,303.3144531 C259.2728882,303.7350159 259.0044556,304.1445313 258.7277832,304.5429688 L267.8669434,304.5429688 L267.8669434,305.7050781 L257.8728027,305.7050781 C257.319397,306.4300232 256.7272949,307.1217346 256.0964355,307.7802734 L259.5827637,307.7802734 Z M253.2907715,300.0273438 L253.8884277,298.9648438 C255.9193573,299.4905701 258.0194702,300.0771484 260.1887207,300.7246094 C261.7935181,300.1546326 263.3679199,299.4905701 264.9118652,298.7324219 L265.7087402,299.6953125 C264.4968262,300.2763672 263.2738647,300.8076172 262.0397949,301.2890625 C263.578186,301.7649841 265.1498413,302.2685547 266.7546387,302.7998047 L266.0905762,303.9951172 C264.0264282,303.2480469 262.0508423,302.5756836 260.1638184,301.9780273 C257.7897949,302.7915039 255.3715057,303.4306641 252.9089355,303.8955078 C252.776123,303.5302734 252.5935059,303.1318359 252.361084,302.7001953 C254.3532715,302.3902893 256.3039551,301.9476013 258.2131348,301.3720703 C256.4921265,300.8574219 254.8513184,300.4091797 253.2907715,300.0273438 Z M269.6350098,300.5751953 L276.723877,300.5751953 L276.723877,298.7988281 L277.9025879,298.7988281 L277.9025879,300.5751953 L285.0910645,300.5751953 L285.0910645,301.6875 L278.9401855,301.6875 C280.6889038,303.0211487 282.8996582,304.0283203 285.5725098,304.7089844 C285.284729,305.140625 285.0302124,305.5335388 284.8088379,305.8876953 C284.2111816,305.6829529 283.6356812,305.4615784 283.0822754,305.2236328 L283.0822754,312.4287109 L281.8205566,312.4287109 L281.8205566,311.6816406 L272.8723145,311.6816406 L272.8723145,312.4453125 L271.6105957,312.4453125 L271.6105957,305.3066406 C271.0461426,305.5667419 270.4540405,305.8157654 269.8342285,306.0537109 C269.6018066,305.7106018 269.3417358,305.3564453 269.0539551,304.9912109 C271.9094238,304.0892029 274.0980835,302.9879456 275.619873,301.6875 L269.6350098,301.6875 Z M269.2365723,313.3251953 L285.4064941,313.3251953 L285.4064941,314.5205078 L269.2365723,314.5205078 Z M276.723877,304.8085938 L276.723877,301.9614258 C275.4511108,303.1899414 273.8075562,304.2773438 271.7932129,305.2236328 L283.0739746,305.2236328 C281.0319824,304.3548279 279.3081665,303.2784729 277.9025879,301.9946289 L277.9025879,304.8085938 Z M272.8723145,310.5361328 L281.8205566,310.5361328 L281.8205566,309.0087891 L272.8723145,309.0087891 Z M281.8205566,306.3691406 L272.8723145,306.3691406 L272.8723145,307.8798828 L281.8205566,307.8798828 Z M291.8894043,312.3955078 C293.6270142,311.6041565 295.1737671,310.71875 296.529541,309.7392578 C296.1975098,308.5439453 295.9623413,306.9391174 295.8239746,304.9248047 L292.6364746,305.2900391 L292.4372559,304.0615234 L295.7492676,303.6879883 C295.671814,302.2547302 295.5971069,300.6582031 295.5251465,298.8984375 L296.8864746,298.8984375 C296.9030762,300.6083984 296.9445801,302.1551208 297.0109863,303.5385742 L302.6140137,302.8994141 L302.7634277,304.1113281 L297.0856934,304.7753906 C297.1908569,306.4632263 297.3679199,307.841156 297.6169434,308.9091797 C298.9506226,307.8134766 300.0684204,306.6126404 300.970459,305.3066406 L302.0495605,306.1201172 C300.8874512,307.6197815 299.5344238,308.9811096 297.9904785,310.2041016 C298.4442749,311.5322266 299.0502319,312.5283203 299.8083496,313.1923828 C300.2289429,313.5465393 300.5664673,313.7236328 300.8210449,313.7236328 C301.1088257,313.7236328 301.3135376,313.4524841 301.4353027,312.9101563 C301.590271,312.1132813 301.7175293,311.2610779 301.8171387,310.3535156 C302.3262329,310.5748596 302.7523804,310.7353516 303.095459,310.8349609 C302.8851929,312.1077576 302.6859741,313.0706482 302.4978027,313.7236328 C302.2321777,314.6201172 301.7230835,315.0683594 300.970459,315.0683594 C300.262146,315.0683594 299.6367798,314.8304138 299.0944824,314.3544922 C298.1869507,313.5908203 297.4675293,312.4729919 296.9362793,311.0009766 C295.6524048,311.9195862 294.2468262,312.7496643 292.7194824,313.4912109 C292.5202637,313.1813049 292.2435913,312.8160706 291.8894043,312.3955078 Z M286.5603027,307.6640625 C287.423584,307.5367737 288.397522,307.3763123 289.4821777,307.1826172 L289.4821777,303.2978516 L286.8093262,303.2978516 L286.8093262,302.1357422 L289.4821777,302.1357422 L289.4821777,298.9648438 L290.760498,298.9648438 L290.760498,302.1357422 L293.1677246,302.1357422 L293.1677246,303.2978516 L290.760498,303.2978516 L290.760498,306.9418945 C291.5241699,306.7980042 292.3376465,306.6402893 293.2009277,306.46875 C293.2119751,306.9003906 293.2285767,307.3154297 293.2507324,307.7138672 C292.4262085,307.8688049 291.5961304,308.0265198 290.760498,308.1870117 L290.760498,313.1923828 C290.760498,314.3434143 290.2402954,314.9300232 289.1999512,314.9521484 C288.6244507,314.9632263 287.9714355,314.9576721 287.2409668,314.9355469 C287.1967163,314.5149841 287.1192017,314.0501404 287.0085449,313.5410156 C287.750061,313.6184998 288.3366699,313.6572266 288.7683105,313.6572266 C289.2442017,313.6572266 289.4821777,313.419281 289.4821777,312.9433594 L289.4821777,308.4526367 C288.6022949,308.6297302 287.7168579,308.815094 286.8259277,309.0087891 Z M297.932373,300.1435547 L298.6628418,299.3134766 C299.6478882,299.9775391 300.6107788,300.669281 301.5515137,301.3886719 L300.704834,302.3515625 C299.7640991,301.5214844 298.8399048,300.7854919 297.932373,300.1435547 Z" style="fill:rgb(23,55,94);stroke:none" clip-path="url(#clip29)" />
<clipPath id="clip30"><path d="M218,338 L322,338 L322,384 L218,384 L218,338 Z" /></clipPath>
<path d="M225,340 C222.2385712,340 220,342.2385864 220,345 L220,376 C220,378.7614136 222.2385712,381 225,381 L314,381 C316.7614136,381 319,378.7614136 319,376 L319,345 C319,342.2385864 316.7614136,340 314,340 Z" style="fill:rgb(220,230,242);stroke:none" clip-path="url(#clip30)" />
<clipPath id="clip31"><path d="M218,338 L322,338 L322,384 L218,384 L218,338 Z" /></clipPath>
<path d="M225,340 C222.2385712,340 220,342.2385864 220,345 L220,376 C220,378.7614136 222.2385712,381 225,381 L314,381 C316.7614136,381 319,378.7614136 319,376 L319,345 C319,342.2385864 316.7614136,340 314,340 Z" style="fill:none;stroke:rgb(85,142,213);stroke-width:2" clip-path="url(#clip31)" />
<clipPath id="clip32"><path d="M232,347 L308,347 L308,375 L232,375 L232,347 Z" /></clipPath>
<path d="M241.3312988,357.7626953 C241.9566193,358.8141479 242.5625763,359.8378906 243.1491699,360.8339844 C243.6914825,359.2955933 244.0318146,357.6077271 244.170166,355.7705078 L240.2521973,355.7705078 L240.2521973,354.5751953 L245.4484863,354.5751953 L245.4484863,355.6708984 C245.2105255,358.0891724 244.706955,360.2584839 243.9377441,362.1787109 C244.7235565,363.5289917 245.4706268,364.8294067 246.1789551,366.0800781 L245.0168457,366.8271484 C244.4468536,365.7314453 243.8740997,364.6523438 243.298584,363.5898438 C242.4574432,365.2610474 241.3866425,366.7164917 240.0861816,367.9560547 C239.8869629,367.6240234 239.6268768,367.2366333 239.3059082,366.7939453 C240.678299,365.4934692 241.7657013,363.9827271 242.5681152,362.2617188 C241.8321075,360.9335938 241.0878143,359.6386719 240.3352051,358.3769531 Z M234.9230957,363.3574219 C235.9302521,361.6806641 236.7050018,359.6829224 237.2473145,357.3642578 L235.1721191,357.3642578 L235.1721191,356.2353516 L237.3469238,356.2353516 L237.3469238,352.8486328 L238.5422363,352.8486328 L238.5422363,356.2353516 L240.3352051,356.2353516 L240.3352051,357.3642578 L238.5422363,357.3642578 L238.5422363,359.9956055 L239.1564941,359.4228516 C239.7430878,359.9762573 240.302002,360.5351563 240.833252,361.0996094 L240.0031738,361.8964844 C239.5493927,361.3264771 239.0624237,360.7786255 238.5422363,360.2529297 L238.5422363,369.2177734 L237.3469238,369.2177734 L237.3469238,360.2114258 C236.7935333,362.164856 236.1571503,363.6950073 235.4377441,364.8017578 C235.3049316,364.3258667 235.1333771,363.8444214 234.9230957,363.3574219 Z M245.7473145,356.3349609 L248.7687988,356.3349609 L248.7687988,352.9316406 L249.9973145,352.9316406 L249.9973145,356.3349609 L251.5744629,356.3349609 L251.5744629,357.4970703 L249.9973145,357.4970703 L249.9973145,366.8271484 C249.9973145,368.1995239 249.3221893,368.8857422 247.9719238,368.8857422 C247.5734863,368.8857422 246.981369,368.880188 246.1955566,368.8691406 C246.1512909,368.4817505 246.0682831,368.0280151 245.9465332,367.5078125 C246.677002,367.5852661 247.2691193,367.6240234 247.7229004,367.6240234 C248.420166,367.6240234 248.7687988,367.3085938 248.7687988,366.6777344 L248.7687988,357.4970703 L245.7473145,357.4970703 Z M245.2824707,359.671875 L246.295166,359.1738281 C246.8596191,360.2805786 247.3798065,361.3984375 247.8557129,362.5273438 L246.7766113,363.0751953 C246.2785645,361.7913208 245.7805176,360.6569214 245.2824707,359.671875 Z M266.9558105,361.9462891 L267.8688965,363.0917969 L264.1584473,364.9511719 C265.4589233,366.0136719 267.088623,366.7164917 269.0476074,367.0595703 C268.6713257,367.5465698 268.3613892,367.9892578 268.1179199,368.3876953 C264.548584,367.5354614 261.9891968,365.3413086 260.4396973,361.8051758 C259.8752441,362.5245972 259.2305298,363.2080078 258.5056152,363.8554688 L258.5056152,367.4082031 C259.9665527,366.932312 261.3223267,366.4342651 262.572998,365.9140625 C262.5619507,366.401062 262.5674438,366.8825073 262.5895996,367.3583984 C261.2614746,367.8121948 259.8890991,368.3102417 258.4724121,368.8525391 C258.173584,368.9743042 257.8803101,369.1181641 257.5925293,369.2841797 L256.8122559,368.0722656 C257.1221313,367.8508911 257.2770996,367.5410156 257.2770996,367.1425781 L257.2770996,364.8598633 C256.1315918,365.7175903 254.831131,366.4951172 253.3757324,367.1923828 C253.1322479,366.8049927 252.8500214,366.4231567 252.5290527,366.046875 C255.3900604,364.8737183 257.6367798,363.302063 259.2692871,361.3320313 L252.7116699,361.3320313 L252.7116699,360.1865234 L260.1491699,360.1865234 L260.1491699,358.4931641 L253.8903809,358.4931641 L253.8903809,357.3476563 L260.1491699,357.3476563 L260.1491699,355.7207031 L253.2263184,355.7207031 L253.2263184,354.5751953 L260.1491699,354.5751953 L260.1491699,352.7158203 L261.4606934,352.7158203 L261.4606934,354.5751953 L268.416748,354.5751953 L268.416748,355.7207031 L261.4606934,355.7207031 L261.4606934,357.3476563 L267.7028809,357.3476563 L267.7028809,358.4931641 L261.4606934,358.4931641 L261.4606934,360.1865234 L268.8815918,360.1865234 L268.8815918,361.3320313 L261.5021973,361.3320313 C261.967041,362.4111328 262.5646973,363.3463745 263.295166,364.1376953 C264.4074707,363.5842896 265.6276855,362.8538208 266.9558105,361.9462891 Z M270.6164551,354.5917969 L277.7053223,354.5917969 L277.7053223,352.8154297 L278.8840332,352.8154297 L278.8840332,354.5917969 L286.0725098,354.5917969 L286.0725098,355.7041016 L279.9216309,355.7041016 C281.6703491,357.0377808 283.8811035,358.0449219 286.5539551,358.7255859 C286.2661743,359.1572266 286.0116577,359.5501099 285.7902832,359.9042969 C285.192627,359.6995239 284.6171265,359.4782104 284.0637207,359.2402344 L284.0637207,366.4453125 L282.802002,366.4453125 L282.802002,365.6982422 L273.8537598,365.6982422 L273.8537598,366.4619141 L272.592041,366.4619141 L272.592041,359.3232422 C272.0275879,359.583313 271.4354858,359.8323364 270.8156738,360.0703125 C270.583252,359.7272339 270.3231812,359.3730469 270.0354004,359.0078125 C272.8908691,358.1057739 275.0795288,357.0045776 276.6013184,355.7041016 L270.6164551,355.7041016 Z M270.2180176,367.3417969 L286.3879395,367.3417969 L286.3879395,368.5371094 L270.2180176,368.5371094 Z M277.7053223,358.8251953 L277.7053223,355.9780273 C276.4325562,357.206543 274.7890015,358.2939453 272.7746582,359.2402344 L284.0554199,359.2402344 C282.0134277,358.3713989 280.2896118,357.295105 278.8840332,356.0112305 L278.8840332,358.8251953 Z M273.8537598,364.5527344 L282.802002,364.5527344 L282.802002,363.0253906 L273.8537598,363.0253906 Z M282.802002,360.3857422 L273.8537598,360.3857422 L273.8537598,361.8964844 L282.802002,361.8964844 Z M292.8708496,366.4121094 C294.6084595,365.6207886 296.1552124,364.7353516 297.5109863,363.7558594 C297.1789551,362.5605469 296.9437866,360.9557495 296.8054199,358.9414063 L293.6179199,359.3066406 L293.4187012,358.078125 L296.7307129,357.7045898 C296.6532593,356.2713013 296.5785522,354.6748047 296.5065918,352.9150391 L297.8679199,352.9150391 C297.8845215,354.625 297.9260254,356.1716919 297.9924316,357.5551758 L303.595459,356.9160156 L303.744873,358.1279297 L298.0671387,358.7919922 C298.1723022,360.4797974 298.3493652,361.8577271 298.5983887,362.9257813 C299.9320679,361.8300781 301.0498657,360.6292114 301.9519043,359.3232422 L303.0310059,360.1367188 C301.8688965,361.6364136 300.5158691,362.9977417 298.9719238,364.2207031 C299.4257202,365.5488281 300.0316772,366.5449219 300.7897949,367.2089844 C301.2103882,367.5631714 301.5479126,367.7402344 301.8024902,367.7402344 C302.090271,367.7402344 302.2949829,367.4690552 302.416748,366.9267578 C302.5717163,366.1298828 302.6989746,365.2776489 302.798584,364.3701172 C303.3076782,364.5914917 303.7338257,364.7519531 304.0769043,364.8515625 C303.8666382,366.1243286 303.6674194,367.0872192 303.479248,367.7402344 C303.213623,368.6367188 302.7045288,369.0849609 301.9519043,369.0849609 C301.2435913,369.0849609 300.6182251,368.8469849 300.0759277,368.3710938 C299.168396,367.6074219 298.4489746,366.489563 297.9177246,365.0175781 C296.6338501,365.9362183 295.2282715,366.7662964 293.7009277,367.5078125 C293.501709,367.197937 293.2250366,366.8327026 292.8708496,366.4121094 Z M287.541748,361.6806641 C288.4050293,361.5534058 289.3789673,361.3928833 290.463623,361.1992188 L290.463623,357.3144531 L287.7907715,357.3144531 L287.7907715,356.1523438 L290.463623,356.1523438 L290.463623,352.9814453 L291.7419434,352.9814453 L291.7419434,356.1523438 L294.1491699,356.1523438 L294.1491699,357.3144531 L291.7419434,357.3144531 L291.7419434,360.9584961 C292.5056152,360.8146362 293.3190918,360.6569214 294.182373,360.4853516 C294.1934204,360.9169922 294.210022,361.3320313 294.2321777,361.7304688 C293.4076538,361.885437 292.5775757,362.0431519 291.7419434,362.2036133 L291.7419434,367.2089844 C291.7419434,368.3600464 291.2217407,368.9465942 290.1813965,368.96875 C289.605896,368.9797974 288.9528809,368.9743042 288.2224121,368.9521484 C288.1781616,368.5315552 288.100647,368.0667114 287.9899902,367.5576172 C288.7315063,367.6350708 289.3181152,367.6738281 289.7497559,367.6738281 C290.225647,367.6738281 290.463623,367.4358521 290.463623,366.9599609 L290.463623,362.4692383 C289.5837402,362.6463013 288.6983032,362.8317261 287.807373,363.0253906 Z M298.9138184,354.1601563 L299.6442871,353.3300781 C300.6293335,353.9941406 301.5922241,354.6858521 302.532959,355.4052734 L301.6862793,356.3681641 C300.7455444,355.5380859 299.8213501,354.802063 298.9138184,354.1601563 Z" style="fill:rgb(23,55,94);stroke:none" clip-path="url(#clip32)" />
</svg>
