<svg id="kity_svg_6" xmlns="http://www.w3.org/2000/svg" xmlns:xlink="http://www.w3.org/1999/xlink" version="1.1" width="953" height="640" style="background: rgb(251, 251, 251); visibility: visible;" viewBox="0 0 953 640"><defs id="kity_defs_7"><linearGradient id="kity_linearGradient_17" x1="0" y1="0" x2="0" y2="1"><stop id="kity_stop_18" offset="0" stop-color="rgb(255, 255, 255)"></stop><stop id="kity_stop_19" offset="1" stop-color="rgb(204, 204, 204)"></stop></linearGradient><marker id="kity_marker_2" orient="auto" refX="6" refY="0" viewBox="-7 -7 14 14" markerWidth="7" markerHeight="7" markerUnits="userSpaceOnUse"><path id="kity_path_3" fill="rgb(115, 161, 191)" stroke="none" d="M6,0A6,6,0,1,1,-6,0A6,6,0,1,1,6,0"></path></marker></defs><g id="kity_g_8"><g id="minder1" text-rendering="optimize-speed"><g id="minder_connect_group1"><path id="kity_path_31" fill="none" stroke="rgb(115, 161, 191)" stroke-width="1" d="M113.5,320.5A211,225,0,0,1,324.5,95.5"></path><path id="kity_path_39" fill="none" stroke="rgb(115, 161, 191)" stroke-width="1" d="M113.5,320.5A211,95,0,0,1,324.5,225.5"></path><path id="kity_path_47" fill="none" stroke="rgb(115, 161, 191)" stroke-width="1" d="M113.5,320.5A211,35,0,0,0,324.5,355.5"></path><path id="kity_path_55" fill="none" stroke="rgb(115, 161, 191)" stroke-width="1" d="M113.5,320.5A211,225,0,0,0,324.5,545.5"></path><path id="kity_path_63" fill="none" stroke="rgb(115, 161, 191)" stroke-width="1" d="M417.5,95.5C437.5,95.5,437.5,35.5,457.5,35.5"></path><path id="kity_path_71" fill="none" stroke="rgb(115, 161, 191)" stroke-width="1" d="M417.5,95.5C437.5,95.5,437.5,95.5,457.5,95.5"></path><path id="kity_path_79" fill="none" stroke="rgb(115, 161, 191)" stroke-width="1" d="M417.5,95.5C437.5,95.5,437.5,155.5,457.5,155.5"></path><path id="kity_path_90" fill="none" stroke="rgb(115, 161, 191)" stroke-width="1" d="M580.5,225.5C600.5,225.5,600.5,225.5,620.5,225.5"></path><path id="kity_path_98" fill="none" stroke="rgb(115, 161, 191)" stroke-width="1" d="M472.5,355.5C492.5,355.5,492.5,295.5,512.5,295.5"></path><path id="kity_path_106" fill="none" stroke="rgb(115, 161, 191)" stroke-width="1" d="M472.5,355.5C492.5,355.5,492.5,355.5,512.5,355.5"></path><path id="kity_path_114" fill="none" stroke="rgb(115, 161, 191)" stroke-width="1" d="M472.5,355.5C492.5,355.5,492.5,415.5,512.5,415.5"></path><path id="kity_path_122" fill="none" stroke="rgb(115, 161, 191)" stroke-width="1" d="M409.5,545.5C429.5,545.5,429.5,485.5,449.5,485.5"></path><path id="kity_path_130" fill="none" stroke="rgb(115, 161, 191)" stroke-width="1" d="M409.5,545.5C429.5,545.5,429.5,545.5,449.5,545.5"></path><path id="kity_path_138" fill="none" stroke="rgb(115, 161, 191)" stroke-width="1" d="M409.5,545.5C429.5,545.5,429.5,605.5,449.5,605.5"></path></g><g id="minder_node1"><path id="node_outline1" fill="rgb(115, 161, 191)" stroke="rgb(115, 161, 191)" d="M25.5,300.5h176a5,5,0,0,1,5,5v30a5,5,0,0,1,-5,5h-176a5,5,0,0,1,-5,-5v-30a5,5,0,0,1,5,-5z" stroke-width="3"></path><g id="node_text1" fill="white"><text id="kity_text_22" text-rendering="inherit" font-size="16" dy=".8em" y="310.09999990463257" x="44.5">JDK8 时间日期 API</text></g></g><g id="kity_g_14" display="none"><path id="kity_path_15" fill="none" stroke="none" d="M44.5,320.5h0v0h0z"></path><path id="kity_path_16" fill="none" stroke="none"></path></g><g id="minder_node2"><g id="node_expander1" style="cursor: pointer;"><path id="kity_path_36" fill="white" stroke="gray" d="M325.5,95.5A6,6,0,1,1,313.5,95.5A6,6,0,1,1,325.5,95.5"></path><path id="kity_path_37" fill="none" stroke="gray" d="M315,95.5L324,95.5"></path></g><path id="node_outline2" fill="rgb(238, 243, 246)" stroke="rgb(115, 161, 191)" d="M329.5,82.5h85a3,3,0,0,1,3,3v20a3,3,0,0,1,-3,3h-85a3,3,0,0,1,-3,-3v-20a3,3,0,0,1,3,-3z" stroke-width="1"></path><g id="node_text2" fill="black"><text id="kity_text_33" text-rendering="inherit" font-size="14" dy=".8em" y="86.40000009536743" x="346.5">Date 类</text></g></g><g id="minder_node3" opacity="1"><g id="node_expander2" style="cursor: pointer;"><path id="kity_path_44" fill="white" stroke="gray" d="M325.5,225.5A6,6,0,1,1,313.5,225.5A6,6,0,1,1,325.5,225.5"></path><path id="kity_path_45" fill="none" stroke="gray" d="M315,225.5L324,225.5"></path></g><path id="node_outline3" fill="rgb(238, 243, 246)" stroke="rgb(115, 161, 191)" d="M329.5,212.5h248a3,3,0,0,1,3,3v20a3,3,0,0,1,-3,3h-248a3,3,0,0,1,-3,-3v-20a3,3,0,0,1,3,-3z" stroke-width="1"></path><g id="node_text3" fill="black"><text id="kity_text_41" text-rendering="inherit" font-size="14" dy=".8em" y="216.40000009536743" x="346.5">日期格式化类 SimpleDateFormat</text></g></g><g id="kity_g_12" display="none"><path id="kity_path_13" fill="none" stroke="rgb(66, 94, 112)" d="M25.5,300.5h176a5,5,0,0,1,5,5v30a5,5,0,0,1,-5,5h-176a5,5,0,0,1,-5,-5v-30a5,5,0,0,1,5,-5z" stroke-width="5"></path></g><g id="minder_node4"><g id="node_expander3" style="cursor: pointer;"><path id="kity_path_52" fill="white" stroke="gray" d="M325.5,355.5A6,6,0,1,1,313.5,355.5A6,6,0,1,1,325.5,355.5"></path><path id="kity_path_53" fill="none" stroke="gray" d="M315,355.5L324,355.5"></path></g><path id="node_outline4" fill="rgb(238, 243, 246)" stroke="rgb(115, 161, 191)" d="M329.5,342.5h140a3,3,0,0,1,3,3v20a3,3,0,0,1,-3,3h-140a3,3,0,0,1,-3,-3v-20a3,3,0,0,1,3,-3z" stroke-width="1"></path><g id="node_text4" fill="black"><text id="kity_text_49" text-rendering="inherit" font-size="14" dy=".8em" y="346.40000009536743" x="346.5">日历类 Calendar</text></g></g><g id="minder_node5"><g id="node_expander4" style="cursor: pointer;"><path id="kity_path_60" fill="white" stroke="gray" d="M325.5,545.5A6,6,0,1,1,313.5,545.5A6,6,0,1,1,325.5,545.5"></path><path id="kity_path_61" fill="none" stroke="gray" d="M315,545.5L324,545.5"></path></g><path id="node_outline5" fill="rgb(238, 243, 246)" stroke="rgb(115, 161, 191)" d="M329.5,532.5h77a3,3,0,0,1,3,3v20a3,3,0,0,1,-3,3h-77a3,3,0,0,1,-3,-3v-20a3,3,0,0,1,3,-3z" stroke-width="1"></path><g id="node_text5" fill="black"><text id="kity_text_57" text-rendering="inherit" font-size="14" dy=".8em" y="536.4000000953674" x="346.5">工具类</text></g></g><g id="minder_node6"><g id="node_expander5" style="cursor: pointer;" display="none"><path id="kity_path_68" fill="white" stroke="gray" d="M457.5,35.5A6,6,0,1,1,445.5,35.5A6,6,0,1,1,457.5,35.5"></path><path id="kity_path_69" fill="none" stroke="gray"></path></g><path id="node_outline6" fill="none" stroke="none" d="M462.5,20.5h124a5,5,0,0,1,5,5v20a5,5,0,0,1,-5,5h-124a5,5,0,0,1,-5,-5v-20a5,5,0,0,1,5,-5z" stroke-width="3"></path><g id="node_text6" fill="black"><text id="kity_text_65" text-rendering="inherit" font-size="12" dy=".8em" y="27.700000047683716" x="492.5">ZoneId（时区）</text></g><g id="kity_g_86" style="cursor: pointer;" display="none"><path id="kity_path_87" fill="none" stroke="none" d="M589,27h12a2,2,0,0,1,2,2v13a2,2,0,0,1,-2,2h-12a2,2,0,0,1,-2,-2v-13a2,2,0,0,1,2,-2z"></path><path id="kity_path_88" fill="black" stroke="none" d="M598,38H592V37h6L598,38L598,38zM598,36H592V35h6V36zM598,34H592V33h6V34zM597.5,40H591V31h8v7.5M598,41l2,-2V30H590v11"></path></g><g id="node_progress4"><path id="kity_path_164" fill="#FFED83" stroke="none" d="M487,36A9,9,0,1,1,469,36A9,9,0,1,1,487,36"></path><path id="kity_path_165" fill="#43BC00" stroke="none" d="M478,36L487,36A9,9,0,0,1,469,36A9,9,0,0,1,487,36L478,36z"></path><path id="kity_path_166" fill="#8E8E8E" stroke="none" d="M478,29c4.418,0,8,3.582,8,8h1c0,-5.523,-3.477,-10,-9,-10S469,31.477,469,37h1C470,32.582,473.582,29,478,29z"></path><path id="kity_path_168" fill="#EEE" stroke="none" d="M483.812,33.896l-6.75,6.75l-4.5,-4.5L474.25,34.459l2.812,2.803l5.062,-5.053L483.812,33.896z"></path><path id="kity_path_167" fill="url(#kity_linearGradient_17)" stroke="none" d="M478,26C472.477,26,468,30.477,468,36c0,5.523,4.477,10,10,10s10,-4.477,10,-10C488,30.477,483.523,26,478,26zM478,44c-4.418,0,-8,-3.582,-8,-8s3.582,-8,8,-8s8,3.582,8,8S482.418,44,478,44z"></path></g><g id="node_priority1" display="none"><path id="kity_path_207" fill="#840023" stroke="none" d="M468,39c0,3.866,3.134,7,7,7h6c3.866,0,7,-3.134,7,-7V33H468V39z"></path><path id="kity_path_208" fill="#FF1200" stroke="none" d="M488,36c0,3.866,-3.134,7,-7,7H475c-3.866,0,-7,-3.134,-7,-7V33c0,-3.866,3.134,-7,7,-7h6c3.866,0,7,3.134,7,7V36z" opacity="0.8"></path><text id="kity_text_209" text-rendering="geometricPrecision" x="477" y="35.5" text-anchor="middle" font-style="italic" font-size="12" fill="white" dy="5">1</text></g></g><g id="minder_node7"><g id="node_expander6" style="cursor: pointer;" display="none"><path id="kity_path_76" fill="white" stroke="gray" d="M457.5,95.5A6,6,0,1,1,445.5,95.5A6,6,0,1,1,457.5,95.5"></path><path id="kity_path_77" fill="none" stroke="gray"></path></g><path id="node_outline7" fill="none" stroke="none" d="M462.5,80.5h134a5,5,0,0,1,5,5v20a5,5,0,0,1,-5,5h-134a5,5,0,0,1,-5,-5v-20a5,5,0,0,1,5,-5z" stroke-width="3"></path><g id="node_text7" fill="black"><text id="kity_text_73" text-rendering="inherit" font-size="12" dy=".8em" y="87.70000004768372" x="492.5">Instant（时间戳）</text></g><g id="node_progress5"><path id="kity_path_170" fill="#FFED83" stroke="none" d="M487,96A9,9,0,1,1,469,96A9,9,0,1,1,487,96"></path><path id="kity_path_171" fill="#43BC00" stroke="none" d="M478,96L487,96A9,9,0,0,1,469,96A9,9,0,0,1,487,96L478,96z"></path><path id="kity_path_172" fill="#8E8E8E" stroke="none" d="M478,89c4.418,0,8,3.582,8,8h1c0,-5.523,-3.477,-10,-9,-10S469,91.477,469,97h1C470,92.582,473.582,89,478,89z"></path><path id="kity_path_174" fill="#EEE" stroke="none" d="M483.812,93.896l-6.75,6.75l-4.5,-4.5L474.25,94.459l2.812,2.803l5.062,-5.053L483.812,93.896z"></path><path id="kity_path_173" fill="url(#kity_linearGradient_17)" stroke="none" d="M478,86C472.477,86,468,90.477,468,96c0,5.523,4.477,10,10,10s10,-4.477,10,-10C488,90.477,483.523,86,478,86zM478,104c-4.418,0,-8,-3.582,-8,-8s3.582,-8,8,-8s8,3.582,8,8S482.418,104,478,104z"></path></g><g id="node_priority2" display="none"><path id="kity_path_212" fill="#01467F" stroke="none" d="M468,99c0,3.866,3.134,7,7,7h6c3.866,0,7,-3.134,7,-7V93H468V99z"></path><path id="kity_path_213" fill="#0074FF" stroke="none" d="M488,96c0,3.866,-3.134,7,-7,7H475c-3.866,0,-7,-3.134,-7,-7V93c0,-3.866,3.134,-7,7,-7h6c3.866,0,7,3.134,7,7V96z" opacity="0.8"></path><text id="kity_text_214" text-rendering="geometricPrecision" x="477" y="95.5" text-anchor="middle" font-style="italic" font-size="12" fill="white" dy="5">2</text></g></g><g id="minder_node8"><g id="node_expander7" style="cursor: pointer;" display="none"><path id="kity_path_84" fill="white" stroke="gray" d="M457.5,155.5A6,6,0,1,1,445.5,155.5A6,6,0,1,1,457.5,155.5"></path><path id="kity_path_85" fill="none" stroke="gray"></path></g><path id="node_outline8" fill="none" stroke="none" d="M462.5,140.5h216a5,5,0,0,1,5,5v20a5,5,0,0,1,-5,5h-216a5,5,0,0,1,-5,-5v-20a5,5,0,0,1,5,-5z" stroke-width="3"></path><g id="node_text8" fill="black"><text id="kity_text_81" text-rendering="inherit" font-size="12" dy=".8em" y="147.70000004768372" x="492.5">ZoneDateTime（带时区的时间）</text></g><g id="node_progress6"><path id="kity_path_176" fill="#FFED83" stroke="none" d="M487,156A9,9,0,1,1,469,156A9,9,0,1,1,487,156"></path><path id="kity_path_177" fill="#43BC00" stroke="none" d="M478,156L487,156A9,9,0,0,1,469,156A9,9,0,0,1,487,156L478,156z"></path><path id="kity_path_178" fill="#8E8E8E" stroke="none" d="M478,149c4.418,0,8,3.582,8,8h1c0,-5.523,-3.477,-10,-9,-10S469,151.477,469,157h1C470,152.582,473.582,149,478,149z"></path><path id="kity_path_180" fill="#EEE" stroke="none" d="M483.812,153.896l-6.75,6.75l-4.5,-4.5L474.25,154.459l2.812,2.803l5.062,-5.053L483.812,153.896z"></path><path id="kity_path_179" fill="url(#kity_linearGradient_17)" stroke="none" d="M478,146C472.477,146,468,150.477,468,156c0,5.523,4.477,10,10,10s10,-4.477,10,-10C488,150.477,483.523,146,478,146zM478,164c-4.418,0,-8,-3.582,-8,-8s3.582,-8,8,-8s8,3.582,8,8S482.418,164,478,164z"></path></g><g id="node_priority3" display="none"><path id="kity_path_217" fill="#006300" stroke="none" d="M468,159c0,3.866,3.134,7,7,7h6c3.866,0,7,-3.134,7,-7V153H468V159z"></path><path id="kity_path_218" fill="#00AF00" stroke="none" d="M488,156c0,3.866,-3.134,7,-7,7H475c-3.866,0,-7,-3.134,-7,-7V153c0,-3.866,3.134,-7,7,-7h6c3.866,0,7,3.134,7,7V156z" opacity="0.8"></path><text id="kity_text_219" text-rendering="geometricPrecision" x="477" y="155.5" text-anchor="middle" font-style="italic" font-size="12" fill="white" dy="5">3</text></g></g><g id="minder_node9"><g id="node_expander8" style="cursor: pointer;" display="none"><path id="kity_path_95" fill="white" stroke="gray" d="M620.5,225.5A6,6,0,1,1,608.5,225.5A6,6,0,1,1,620.5,225.5"></path><path id="kity_path_96" fill="none" stroke="gray"></path></g><path id="node_outline9" fill="none" stroke="none" d="M625.5,210.5h303a5,5,0,0,1,5,5v20a5,5,0,0,1,-5,5h-303a5,5,0,0,1,-5,-5v-20a5,5,0,0,1,5,-5z" stroke-width="3"></path><g id="node_text9" fill="black"><text id="kity_text_92" text-rendering="inherit" font-size="12" dy=".8em" y="217.70000004768372" x="655.5">DateTimeFormatter（用于时间的格式化和解析）</text></g><g id="node_progress7"><path id="kity_path_182" fill="#FFED83" stroke="none" d="M650,226A9,9,0,1,1,632,226A9,9,0,1,1,650,226"></path><path id="kity_path_183" fill="#43BC00" stroke="none" d="M641,226L650,226A9,9,0,0,1,632,226A9,9,0,0,1,650,226L641,226z"></path><path id="kity_path_184" fill="#8E8E8E" stroke="none" d="M641,219c4.418,0,8,3.582,8,8h1c0,-5.523,-3.477,-10,-9,-10S632,221.477,632,227h1C633,222.582,636.582,219,641,219z"></path><path id="kity_path_186" fill="#EEE" stroke="none" d="M646.812,223.896l-6.75,6.75l-4.5,-4.5L637.25,224.459l2.812,2.803l5.062,-5.053L646.812,223.896z"></path><path id="kity_path_185" fill="url(#kity_linearGradient_17)" stroke="none" d="M641,216C635.477,216,631,220.477,631,226c0,5.523,4.477,10,10,10s10,-4.477,10,-10C651,220.477,646.523,216,641,216zM641,234c-4.418,0,-8,-3.582,-8,-8s3.582,-8,8,-8s8,3.582,8,8S645.418,234,641,234z"></path></g><g id="node_priority4" display="none"><path id="kity_path_222" fill="#B25000" stroke="none" d="M631,229c0,3.866,3.134,7,7,7h6c3.866,0,7,-3.134,7,-7V223H631V229z"></path><path id="kity_path_223" fill="#FF962E" stroke="none" d="M651,226c0,3.866,-3.134,7,-7,7H638c-3.866,0,-7,-3.134,-7,-7V223c0,-3.866,3.134,-7,7,-7h6c3.866,0,7,3.134,7,7V226z" opacity="0.8"></path><text id="kity_text_224" text-rendering="geometricPrecision" x="640" y="225.5" text-anchor="middle" font-style="italic" font-size="12" fill="white" dy="5">4</text></g></g><g id="minder_node10"><g id="node_expander9" style="cursor: pointer;" display="none"><path id="kity_path_103" fill="white" stroke="gray" d="M512.5,295.5A6,6,0,1,1,500.5,295.5A6,6,0,1,1,512.5,295.5"></path><path id="kity_path_104" fill="none" stroke="gray"></path></g><path id="node_outline10" fill="none" stroke="none" d="M517.5,280.5h176a5,5,0,0,1,5,5v20a5,5,0,0,1,-5,5h-176a5,5,0,0,1,-5,-5v-20a5,5,0,0,1,5,-5z" stroke-width="3"></path><g id="node_text10" fill="black"><text id="kity_text_100" text-rendering="inherit" font-size="12" dy=".8em" y="287.7000000476837" x="547.5">LocalDate（年、月、日）</text></g><g id="node_progress8"><path id="kity_path_188" fill="#FFED83" stroke="none" d="M542,296A9,9,0,1,1,524,296A9,9,0,1,1,542,296"></path><path id="kity_path_189" fill="#43BC00" stroke="none" d="M533,296L542,296A9,9,0,0,1,524,296A9,9,0,0,1,542,296L533,296z"></path><path id="kity_path_190" fill="#8E8E8E" stroke="none" d="M533,289c4.418,0,8,3.582,8,8h1c0,-5.523,-3.477,-10,-9,-10S524,291.477,524,297h1C525,292.582,528.582,289,533,289z"></path><path id="kity_path_192" fill="#EEE" stroke="none" d="M538.812,293.896l-6.75,6.75l-4.5,-4.5L529.25,294.459l2.812,2.803l5.062,-5.053L538.812,293.896z"></path><path id="kity_path_191" fill="url(#kity_linearGradient_17)" stroke="none" d="M533,286C527.477,286,523,290.477,523,296c0,5.523,4.477,10,10,10s10,-4.477,10,-10C543,290.477,538.523,286,533,286zM533,304c-4.418,0,-8,-3.582,-8,-8s3.582,-8,8,-8s8,3.582,8,8S537.418,304,533,304z"></path></g><g id="node_priority5" display="none"><path id="kity_path_227" fill="#4720C4" stroke="none" d="M523,299c0,3.866,3.134,7,7,7h6c3.866,0,7,-3.134,7,-7V293H523V299z"></path><path id="kity_path_228" fill="#A464FF" stroke="none" d="M543,296c0,3.866,-3.134,7,-7,7H530c-3.866,0,-7,-3.134,-7,-7V293c0,-3.866,3.134,-7,7,-7h6c3.866,0,7,3.134,7,7V296z" opacity="0.8"></path><text id="kity_text_229" text-rendering="geometricPrecision" x="532" y="295.5" text-anchor="middle" font-style="italic" font-size="12" fill="white" dy="5">5</text></g></g><g id="minder_node11"><g id="node_expander10" style="cursor: pointer;" display="none"><path id="kity_path_111" fill="white" stroke="gray" d="M512.5,355.5A6,6,0,1,1,500.5,355.5A6,6,0,1,1,512.5,355.5"></path><path id="kity_path_112" fill="none" stroke="gray"></path></g><path id="node_outline11" fill="none" stroke="none" d="M517.5,340.5h177a5,5,0,0,1,5,5v20a5,5,0,0,1,-5,5h-177a5,5,0,0,1,-5,-5v-20a5,5,0,0,1,5,-5z" stroke-width="3"></path><g id="node_text11" fill="black"><text id="kity_text_108" text-rendering="inherit" font-size="12" dy=".8em" y="347.7000000476837" x="547.5">LocalTime（时、分、秒）</text></g><g id="node_progress9"><path id="kity_path_194" fill="#FFED83" stroke="none" d="M542,356A9,9,0,1,1,524,356A9,9,0,1,1,542,356"></path><path id="kity_path_195" fill="#43BC00" stroke="none" d="M533,356L542,356A9,9,0,0,1,524,356A9,9,0,0,1,542,356L533,356z"></path><path id="kity_path_196" fill="#8E8E8E" stroke="none" d="M533,349c4.418,0,8,3.582,8,8h1c0,-5.523,-3.477,-10,-9,-10S524,351.477,524,357h1C525,352.582,528.582,349,533,349z"></path><path id="kity_path_198" fill="#EEE" stroke="none" d="M538.812,353.896l-6.75,6.75l-4.5,-4.5L529.25,354.459l2.812,2.803l5.062,-5.053L538.812,353.896z"></path><path id="kity_path_197" fill="url(#kity_linearGradient_17)" stroke="none" d="M533,346C527.477,346,523,350.477,523,356c0,5.523,4.477,10,10,10s10,-4.477,10,-10C543,350.477,538.523,346,533,346zM533,364c-4.418,0,-8,-3.582,-8,-8s3.582,-8,8,-8s8,3.582,8,8S537.418,364,533,364z"></path></g><g id="node_priority6" display="none"><path id="kity_path_232" fill="#515151" stroke="none" d="M523,359c0,3.866,3.134,7,7,7h6c3.866,0,7,-3.134,7,-7V353H523V359z"></path><path id="kity_path_233" fill="#A3A3A3" stroke="none" d="M543,356c0,3.866,-3.134,7,-7,7H530c-3.866,0,-7,-3.134,-7,-7V353c0,-3.866,3.134,-7,7,-7h6c3.866,0,7,3.134,7,7V356z" opacity="0.8"></path><text id="kity_text_234" text-rendering="geometricPrecision" x="532" y="355.5" text-anchor="middle" font-style="italic" font-size="12" fill="white" dy="5">6</text></g></g><g id="minder_node12"><g id="node_expander11" style="cursor: pointer;" display="none"><path id="kity_path_119" fill="white" stroke="gray" d="M512.5,415.5A6,6,0,1,1,500.5,415.5A6,6,0,1,1,512.5,415.5"></path><path id="kity_path_120" fill="none" stroke="gray"></path></g><path id="node_outline12" fill="none" stroke="none" d="M517.5,400.5h276a5,5,0,0,1,5,5v20a5,5,0,0,1,-5,5h-276a5,5,0,0,1,-5,-5v-20a5,5,0,0,1,5,-5z" stroke-width="3"></path><g id="node_text12" fill="black"><text id="kity_text_116" text-rendering="inherit" font-size="12" dy=".8em" y="407.7000000476837" x="547.5">LocalDateTime（年、月、日、时、分、秒）</text></g><g id="node_progress10"><path id="kity_path_200" fill="#FFED83" stroke="none" d="M542,416A9,9,0,1,1,524,416A9,9,0,1,1,542,416"></path><path id="kity_path_201" fill="#43BC00" stroke="none" d="M533,416L542,416A9,9,0,0,1,524,416A9,9,0,0,1,542,416L533,416z"></path><path id="kity_path_202" fill="#8E8E8E" stroke="none" d="M533,409c4.418,0,8,3.582,8,8h1c0,-5.523,-3.477,-10,-9,-10S524,411.477,524,417h1C525,412.582,528.582,409,533,409z"></path><path id="kity_path_204" fill="#EEE" stroke="none" d="M538.812,413.896l-6.75,6.75l-4.5,-4.5L529.25,414.459l2.812,2.803l5.062,-5.053L538.812,413.896z"></path><path id="kity_path_203" fill="url(#kity_linearGradient_17)" stroke="none" d="M533,406C527.477,406,523,410.477,523,416c0,5.523,4.477,10,10,10s10,-4.477,10,-10C543,410.477,538.523,406,533,406zM533,424c-4.418,0,-8,-3.582,-8,-8s3.582,-8,8,-8s8,3.582,8,8S537.418,424,533,424z"></path></g><g id="node_priority7" display="none"><path id="kity_path_237" fill="#515151" stroke="none" d="M523,419c0,3.866,3.134,7,7,7h6c3.866,0,7,-3.134,7,-7V413H523V419z"></path><path id="kity_path_238" fill="#A3A3A3" stroke="none" d="M543,416c0,3.866,-3.134,7,-7,7H530c-3.866,0,-7,-3.134,-7,-7V413c0,-3.866,3.134,-7,7,-7h6c3.866,0,7,3.134,7,7V416z" opacity="0.8"></path><text id="kity_text_239" text-rendering="geometricPrecision" x="532" y="415.5" text-anchor="middle" font-style="italic" font-size="12" fill="white" dy="5">7</text></g></g><g id="minder_node13"><g id="node_expander12" style="cursor: pointer;" display="none"><path id="kity_path_127" fill="white" stroke="gray" d="M449.5,485.5A6,6,0,1,1,437.5,485.5A6,6,0,1,1,449.5,485.5"></path><path id="kity_path_128" fill="none" stroke="gray"></path></g><path id="node_outline13" fill="none" stroke="none" d="M454.5,470.5h217a5,5,0,0,1,5,5v20a5,5,0,0,1,-5,5h-217a5,5,0,0,1,-5,-5v-20a5,5,0,0,1,5,-5z" stroke-width="3"></path><g id="node_text13" fill="black"><text id="kity_text_124" text-rendering="inherit" font-size="12" dy=".8em" y="477.7000000476837" x="484.5">Duration（时间间隔：秒，纳秒）</text></g><g id="node_progress3"><path id="kity_path_158" fill="#FFED83" stroke="none" d="M479,486A9,9,0,1,1,461,486A9,9,0,1,1,479,486"></path><path id="kity_path_159" fill="#43BC00" stroke="none" d="M470,486L479,486A9,9,0,0,1,461,486A9,9,0,0,1,479,486L470,486z"></path><path id="kity_path_160" fill="#8E8E8E" stroke="none" d="M470,479c4.418,0,8,3.582,8,8h1c0,-5.523,-3.477,-10,-9,-10S461,481.477,461,487h1C462,482.582,465.582,479,470,479z"></path><path id="kity_path_162" fill="#EEE" stroke="none" d="M475.812,483.896l-6.75,6.75l-4.5,-4.5L466.25,484.459l2.812,2.803l5.062,-5.053L475.812,483.896z"></path><path id="kity_path_161" fill="url(#kity_linearGradient_17)" stroke="none" d="M470,476C464.477,476,460,480.477,460,486c0,5.523,4.477,10,10,10s10,-4.477,10,-10C480,480.477,475.523,476,470,476zM470,494c-4.418,0,-8,-3.582,-8,-8s3.582,-8,8,-8s8,3.582,8,8S474.418,494,470,494z"></path></g><g id="node_priority8" display="none"><path id="kity_path_242" fill="#515151" stroke="none" d="M460,489c0,3.866,3.134,7,7,7h6c3.866,0,7,-3.134,7,-7V483H460V489z"></path><path id="kity_path_243" fill="#A3A3A3" stroke="none" d="M480,486c0,3.866,-3.134,7,-7,7H467c-3.866,0,-7,-3.134,-7,-7V483c0,-3.866,3.134,-7,7,-7h6c3.866,0,7,3.134,7,7V486z" opacity="0.8"></path><text id="kity_text_244" text-rendering="geometricPrecision" x="469" y="485.5" text-anchor="middle" font-style="italic" font-size="12" fill="white" dy="5">8</text></g></g><g id="minder_node14"><g id="node_expander13" style="cursor: pointer;" display="none"><path id="kity_path_135" fill="white" stroke="gray" d="M449.5,545.5A6,6,0,1,1,437.5,545.5A6,6,0,1,1,449.5,545.5"></path><path id="kity_path_136" fill="none" stroke="gray"></path></g><path id="node_outline14" fill="none" stroke="none" d="M454.5,530.5h216a5,5,0,0,1,5,5v20a5,5,0,0,1,-5,5h-216a5,5,0,0,1,-5,-5v-20a5,5,0,0,1,5,-5z" stroke-width="3"></path><g id="node_text14" fill="black"><text id="kity_text_132" text-rendering="inherit" font-size="12" dy=".8em" y="537.7000000476837" x="484.5">Period（时间间隔：年、月、日）</text></g><g id="node_progress2"><path id="kity_path_152" fill="#FFED83" stroke="none" d="M479,546A9,9,0,1,1,461,546A9,9,0,1,1,479,546"></path><path id="kity_path_153" fill="#43BC00" stroke="none" d="M470,546L479,546A9,9,0,0,1,461,546A9,9,0,0,1,479,546L470,546z"></path><path id="kity_path_154" fill="#8E8E8E" stroke="none" d="M470,539c4.418,0,8,3.582,8,8h1c0,-5.523,-3.477,-10,-9,-10S461,541.477,461,547h1C462,542.582,465.582,539,470,539z"></path><path id="kity_path_156" fill="#EEE" stroke="none" d="M475.812,543.896l-6.75,6.75l-4.5,-4.5L466.25,544.459l2.812,2.803l5.062,-5.053L475.812,543.896z"></path><path id="kity_path_155" fill="url(#kity_linearGradient_17)" stroke="none" d="M470,536C464.477,536,460,540.477,460,546c0,5.523,4.477,10,10,10s10,-4.477,10,-10C480,540.477,475.523,536,470,536zM470,554c-4.418,0,-8,-3.582,-8,-8s3.582,-8,8,-8s8,3.582,8,8S474.418,554,470,554z"></path></g><g id="node_priority9" display="none"><path id="kity_path_247" fill="#515151" stroke="none" d="M460,549c0,3.866,3.134,7,7,7h6c3.866,0,7,-3.134,7,-7V543H460V549z"></path><path id="kity_path_248" fill="#A3A3A3" stroke="none" d="M480,546c0,3.866,-3.134,7,-7,7H467c-3.866,0,-7,-3.134,-7,-7V543c0,-3.866,3.134,-7,7,-7h6c3.866,0,7,3.134,7,7V546z" opacity="0.8"></path><text id="kity_text_249" text-rendering="geometricPrecision" x="469" y="545.5" text-anchor="middle" font-style="italic" font-size="12" fill="white" dy="5">9</text></g></g><g id="minder_node15"><g id="node_expander14" style="cursor: pointer;" display="none"><path id="kity_path_143" fill="white" stroke="gray" d="M449.5,605.5A6,6,0,1,1,437.5,605.5A6,6,0,1,1,449.5,605.5"></path><path id="kity_path_144" fill="none" stroke="gray"></path></g><path id="node_outline15" fill="none" stroke="none" d="M454.5,590.5h234a5,5,0,0,1,5,5v20a5,5,0,0,1,-5,5h-234a5,5,0,0,1,-5,-5v-20a5,5,0,0,1,5,-5z" stroke-width="3"></path><g id="node_text15" fill="black"><text id="kity_text_140" text-rendering="inherit" font-size="12" dy=".8em" y="597.7000000476837" x="484.5">ChronoUnit（时间间隔：所有单位）</text></g><g id="node_progress1"><path id="kity_path_146" fill="#FFED83" stroke="none" d="M479,606A9,9,0,1,1,461,606A9,9,0,1,1,479,606"></path><path id="kity_path_147" fill="#43BC00" stroke="none" d="M470,606L479,606A9,9,0,0,1,461,606A9,9,0,0,1,479,606L470,606z"></path><path id="kity_path_148" fill="#8E8E8E" stroke="none" d="M470,599c4.418,0,8,3.582,8,8h1c0,-5.523,-3.477,-10,-9,-10S461,601.477,461,607h1C462,602.582,465.582,599,470,599z"></path><path id="kity_path_150" fill="#EEE" stroke="none" d="M475.812,603.896l-6.75,6.75l-4.5,-4.5L466.25,604.459l2.812,2.803l5.062,-5.053L475.812,603.896z"></path><path id="kity_path_149" fill="url(#kity_linearGradient_17)" stroke="none" d="M470,596C464.477,596,460,600.477,460,606c0,5.523,4.477,10,10,10s10,-4.477,10,-10C480,600.477,475.523,596,470,596zM470,614c-4.418,0,-8,-3.582,-8,-8s3.582,-8,8,-8s8,3.582,8,8S474.418,614,470,614z"></path></g><g id="kity_g_250" display="none"><g id="kity_g_251"><path id="kity_path_252" fill="rgb(255, 244, 179)" stroke="none" d="M700.5,592.5h30v24h-30z"></path><text id="kity_text_253" text-rendering="geometricPrecision" font-size="12" dy="5" x="708.5" fill="rgb(77, 65, 0)" y="604.5">10</text></g></g></g></g></g></svg>